# Blender 5.1.0
# www.blender.org
mtllib ballSideTrack3.mtl
o ballSideTrack3
v -12.427970 0.199935 -0.150626
v 6.572030 0.199935 -0.150626
v -12.427968 0.164836 -0.156675
v -12.427970 0.199935 -0.159498
v -12.427971 0.186273 -0.159498
v -12.427970 0.161923 -0.164502
v -12.427968 0.140541 -0.167100
v 6.572031 0.140541 -0.167100
v 6.572031 0.164835 -0.156675
v -12.427968 0.118843 -0.182203
v -12.427969 0.139079 -0.174305
v -12.427968 0.118676 -0.188506
v -12.427968 0.100629 -0.201364
v 6.572031 0.100628 -0.201364
v 6.572031 0.118842 -0.182203
v -12.427968 0.086645 -0.223800
v -12.427968 0.077463 -0.248591
v -12.427966 0.088400 -0.227619
v -12.427967 0.101549 -0.206523
v -12.972400 0.088400 -0.227619
v -12.972401 0.101549 -0.206523
v -12.972402 0.118676 -0.188506
v -12.972403 0.139079 -0.174305
v -12.972404 0.161923 -0.164502
v -12.972404 0.186273 -0.159498
v -12.972404 0.199935 -0.159498
v -12.427970 0.211131 -0.159498
v -12.972404 0.211131 -0.159498
v -12.427970 0.235481 -0.164502
v -12.972404 0.235481 -0.164502
v -12.427969 0.258325 -0.174305
v -12.972403 0.258325 -0.174305
v -12.427969 0.278728 -0.188506
v -12.972403 0.278728 -0.188506
v -12.427969 0.295855 -0.206523
v -12.972403 0.295855 -0.206523
v -12.427969 0.309004 -0.227619
v -12.972403 0.309004 -0.227619
v -12.427969 0.317638 -0.250931
v -12.972403 0.317638 -0.250931
v -12.427969 0.321402 -0.275503
v -12.972403 0.321402 -0.275503
v -12.427968 0.320143 -0.300329
v -12.972402 0.320143 -0.300329
v -12.427968 0.313912 -0.324394
v -12.972402 0.313912 -0.324394
v -12.427968 0.302965 -0.346713
v -12.972402 0.302965 -0.346713
v -12.427968 0.287748 -0.366370
v -12.972402 0.287748 -0.366370
v -12.427968 0.268887 -0.382562
v -12.972402 0.268887 -0.382562
v -12.427968 0.247152 -0.394626
v -12.972402 0.247152 -0.394626
v -12.427968 0.223433 -0.402068
v -12.972402 0.223433 -0.402068
v -12.427968 0.199935 -0.404458
v -12.972402 0.199935 -0.404458
v -12.427972 0.198702 -0.404583
v -12.972405 0.198702 -0.404583
v -12.427971 0.173971 -0.402068
v -12.972404 0.173971 -0.402068
v -12.427970 0.150253 -0.394626
v -12.972404 0.150253 -0.394626
v -12.427969 0.128518 -0.382562
v -12.972403 0.128518 -0.382562
v -12.427968 0.109656 -0.366370
v -12.972402 0.109656 -0.366370
v -12.427967 0.094440 -0.346713
v -12.972401 0.094440 -0.346713
v -12.427966 0.083492 -0.324394
v -12.972400 0.083492 -0.324394
v -12.427966 0.077261 -0.300329
v -12.972400 0.077261 -0.300329
v -12.427966 0.076002 -0.275503
v -12.972400 0.076002 -0.275503
v -12.427966 0.079766 -0.250931
v -12.972400 0.079766 -0.250931
v -12.427968 0.073460 -0.274723
v 6.572031 0.073459 -0.274723
v 6.572031 0.077462 -0.248591
v -12.427969 0.074799 -0.301126
v 6.572031 0.074798 -0.301126
v -12.427969 0.081425 -0.326719
v -12.427969 0.093068 -0.350454
v 6.572031 0.093067 -0.350454
v 6.572031 0.081425 -0.326719
v -12.427969 0.109250 -0.371359
v -12.427969 0.129309 -0.388580
v 6.572031 0.129309 -0.388580
v 6.572031 0.109249 -0.371359
v -12.427969 0.152424 -0.401410
v -12.427969 0.177649 -0.409324
v 6.572031 0.177648 -0.409324
v 6.572031 0.152424 -0.401410
v -12.427968 0.199935 -0.411998
v 6.572031 0.199935 -0.411998
v 6.572031 0.086644 -0.223800
vn -0.0000 0.2840 -0.9588
vn -0.0000 0.0853 -0.9964
vn 1.0000 -0.0000 -0.0001
vn 1.0000 0.0001 -0.0000
vn 1.0000 0.0001 -0.0002
vn 1.0000 -0.0002 0.0009
vn 1.0000 0.0001 -0.0005
vn -0.0000 0.6514 -0.7588
vn -0.0000 0.4853 -0.8743
vn 1.0000 -0.0001 0.0001
vn 1.0000 -0.0000 -0.0000
vn -0.0000 0.8978 -0.4404
vn -0.0000 0.7908 -0.6121
vn 1.0000 -0.0006 0.0002
vn 1.0000 -0.0027 0.0009
vn 1.0000 -0.0002 0.0002
vn -0.0000 0.2994 -0.9541
vn -0.0000 0.1012 -0.9949
vn -0.0000 -0.0000 -1.0000
vn -0.0000 -0.1012 -0.9949
vn -0.0000 -0.2994 -0.9541
vn -0.0000 -0.4853 -0.8743
vn -0.0000 -0.6514 -0.7588
vn -0.0000 -0.7908 -0.6121
vn -0.0000 -0.8978 -0.4404
vn -0.0000 -0.9681 -0.2507
vn -0.0000 -0.9987 -0.0506
vn -0.0000 -0.9885 0.1514
vn -0.0000 -0.9378 0.3473
vn -0.0000 -0.8486 0.5290
vn -0.0000 -0.7248 0.6890
vn -0.0000 -0.5713 0.8208
vn -0.0000 -0.3944 0.9190
vn -0.0000 -0.2013 0.9795
vn -0.0000 -0.1012 0.9949
vn -0.0000 -0.0001 1.0000
vn -0.0000 0.0001 1.0000
vn -0.0000 0.2013 0.9795
vn -0.0000 0.3944 0.9190
vn -0.0000 0.5713 0.8208
vn -0.0000 0.7248 0.6890
vn -0.0000 0.8486 0.5290
vn -0.0000 0.9378 0.3473
vn -0.0000 0.9885 0.1514
vn -0.0000 0.9987 -0.0506
vn -0.0000 0.9681 -0.2507
vn 1.0000 -0.0007 -0.0000
vn 1.0000 -0.0007 0.0001
vn 1.0000 -0.0011 -0.0002
vn 1.0000 -0.0004 -0.0001
vn 0.9993 -0.0355 -0.0130
vn 1.0000 -0.0000 0.0003
vn 1.0000 -0.0006 -0.0010
vn 1.0000 -0.0005 -0.0003
vn 1.0000 0.0001 0.0003
vn 1.0000 0.0001 0.0002
vn 1.0000 0.0001 0.0001
vn -0.0000 0.2102 0.9777
vn 1.0000 -0.0005 0.0018
vn 0.9997 -0.0052 0.0236
vn -1.0000 -0.0000 -0.0000
vn -1.0000 -0.0000 0.0002
vn -1.0000 -0.0000 0.0001
vn -1.0000 -0.0000 -0.0001
vt 0.000000 1.000000
vt -0.003240 1.068619
vt 0.330645 0.000000
vt 0.024249 0.994634
vt 0.021787 1.032936
vt 0.093429 0.752093
vt 0.362903 0.000000
vt 0.330645 1.000000
vt 0.298387 1.000000
vt 0.298387 0.000000
vt 0.395161 0.000000
vt 0.318981 0.083002
vt 0.362966 0.032583
vt 0.427419 0.000000
vt 0.395161 1.000000
vt 0.362903 1.000000
vt 0.459678 0.000000
vt 0.428293 0.014021
vt 0.396341 0.020265
vt -20.658072 -7.622998
vt -20.630919 -7.622997
vt -20.717115 -7.610863
vt -20.772512 -7.587091
vt -20.821987 -7.552654
vt -20.863522 -7.508963
vt -20.895407 -7.457805
vt -20.916344 -7.401275
vt -20.925474 -7.341689
vt -20.922421 -7.281486
vt -20.907310 -7.223128
vt -20.880762 -7.169007
vt -20.843863 -7.121338
vt -20.798124 -7.082073
vt -20.745420 -7.052818
vt -20.687902 -7.034772
vt -20.630922 -7.028977
vt 0.713278 0.044202
vt 0.712791 0.047696
vt 0.698872 0.017610
vt 0.671163 0.013128
vt 0.641983 0.010823
vt 0.612291 0.009227
vt 0.582251 0.008185
vt 0.551934 0.007710
vt 0.521389 0.007853
vt 0.490636 0.008711
vt 0.459641 0.010565
vt 0.491936 0.000000
vt 0.524194 0.000000
vt 0.491936 1.000000
vt 0.459678 1.000000
vt 0.556452 0.000000
vt 0.524194 1.000000
vt 0.588710 0.000000
vt 0.620968 0.000000
vt 0.588710 1.000000
vt 0.556452 1.000000
vt 0.653226 0.000000
vt 0.685484 0.000000
vt 0.653226 1.000000
vt 0.620968 1.000000
vt 0.717742 0.000000
vt 0.685484 1.000000
vt 0.717742 1.000000
vt 0.734063 0.017366
vt 12.166405 -13.649254
vt 12.166405 -12.539336
vt 0.556475 0.000000
vt 0.617970 0.000000
vt 0.427419 1.000000
s 1
usemtl metall
f 3/1/1 1/1/2 2/1/2
f 1/2/3 3/1/4 7/3/4
f 5/4/5 4/5/6 1/2/3
f 6/6/7 5/4/5 1/2/3
f 6/6/7 1/2/3 7/3/4
f 10/7/8 7/3/9 8/8/9
f 9/9/1 8/8/9 7/3/9
f 7/3/9 3/10/1 9/9/1
f 13/11/10 7/3/4 10/7/11
f 11/12/4 6/6/7 7/3/4
f 12/13/11 11/12/4 7/3/4
f 13/11/10 12/13/11 7/3/4
f 16/14/12 13/11/13 14/15/13
f 15/16/8 14/15/13 13/11/13
f 13/11/13 10/7/8 15/16/8
f 13/11/10 16/14/11 17/17/14
f 13/11/10 17/17/14 18/18/15
f 13/11/10 18/18/15 19/19/16
f 13/11/10 19/19/16 12/13/11
f 19/19/13 18/18/12 20/18/12
f 20/18/12 21/19/13 19/19/13
f 12/13/8 19/19/13 21/19/13
f 21/19/13 22/13/8 12/13/8
f 11/12/9 12/13/8 22/13/8
f 22/13/8 23/12/9 11/12/9
f 6/6/17 11/12/9 23/12/9
f 23/12/9 24/6/17 6/6/17
f 5/4/18 6/6/17 24/6/17
f 24/6/17 25/4/18 5/4/18
f 4/5/19 5/4/18 25/4/18
f 25/4/18 26/5/19 4/5/19
f 27/20/20 4/21/19 26/21/19
f 26/21/19 28/20/20 27/20/20
f 29/22/21 27/20/20 28/20/20
f 28/20/20 30/22/21 29/22/21
f 31/23/22 29/22/21 30/22/21
f 30/22/21 32/23/22 31/23/22
f 33/24/23 31/23/22 32/23/22
f 32/23/22 34/24/23 33/24/23
f 35/25/24 33/24/23 34/24/23
f 34/24/23 36/25/24 35/25/24
f 37/26/25 35/25/24 36/25/24
f 36/25/24 38/26/25 37/26/25
f 39/27/26 37/26/25 38/26/25
f 38/26/25 40/27/26 39/27/26
f 41/28/27 39/27/26 40/27/26
f 40/27/26 42/28/27 41/28/27
f 43/29/28 41/28/27 42/28/27
f 42/28/27 44/29/28 43/29/28
f 45/30/29 43/29/28 44/29/28
f 44/29/28 46/30/29 45/30/29
f 47/31/30 45/30/29 46/30/29
f 46/30/29 48/31/30 47/31/30
f 49/32/31 47/31/30 48/31/30
f 48/31/30 50/32/31 49/32/31
f 51/33/32 49/32/31 50/32/31
f 50/32/31 52/33/32 51/33/32
f 53/34/33 51/33/32 52/33/32
f 52/33/32 54/34/33 53/34/33
f 55/35/34 53/34/33 54/34/33
f 54/34/33 56/35/34 55/35/34
f 57/36/35 55/35/34 56/35/34
f 56/35/34 58/36/35 57/36/35
f 59/37/36 57/38/35 58/38/35
f 58/38/35 60/37/37 59/37/36
f 61/39/38 59/37/36 60/37/37
f 60/37/37 62/39/38 61/39/38
f 63/40/39 61/39/38 62/39/38
f 62/39/38 64/40/39 63/40/39
f 65/41/40 63/40/39 64/40/39
f 64/40/39 66/41/40 65/41/40
f 67/42/41 65/41/40 66/41/40
f 66/41/40 68/42/41 67/42/41
f 69/43/42 67/42/41 68/42/41
f 68/42/41 70/43/42 69/43/42
f 71/44/43 69/43/42 70/43/42
f 70/43/42 72/44/43 71/44/43
f 73/45/44 71/44/43 72/44/43
f 72/44/43 74/45/44 73/45/44
f 75/46/45 73/45/44 74/45/44
f 74/45/44 76/46/45 75/46/45
f 77/47/46 75/46/45 76/46/45
f 76/46/45 78/47/46 77/47/46
f 18/18/12 77/47/46 78/47/46
f 78/47/46 20/18/12 18/18/12
f 17/17/14 75/46/47 77/47/48
f 17/17/14 77/47/48 18/18/15
f 79/48/47 73/45/49 75/46/47
f 17/17/14 79/48/47 75/46/47
f 82/49/44 79/48/45 80/50/45
f 81/51/46 80/50/45 79/48/45
f 79/48/45 17/17/46 81/51/46
f 79/48/47 82/49/49 73/45/49
f 84/52/43 82/49/44 83/53/44
f 80/50/45 83/53/44 82/49/44
f 82/49/49 84/52/11 85/54/50
f 82/49/49 85/54/50 71/44/51
f 82/49/49 71/44/51 73/45/49
f 88/55/41 85/54/42 86/56/42
f 87/57/43 86/56/42 85/54/42
f 85/54/42 84/52/43 87/57/43
f 85/54/50 88/55/11 89/58/52
f 85/54/50 89/58/52 67/42/53
f 85/54/50 67/42/53 69/43/54
f 85/54/50 69/43/54 71/44/51
f 92/59/39 89/58/40 90/60/40
f 91/61/41 90/60/40 89/58/40
f 89/58/40 88/55/41 91/61/41
f 89/58/52 92/59/11 93/62/55
f 89/58/52 93/62/55 61/39/55
f 89/58/52 61/39/55 63/40/56
f 89/58/52 63/40/56 65/41/57
f 89/58/52 65/41/57 67/42/53
f 95/63/39 94/64/58 93/62/58
f 93/62/58 92/59/39 95/63/39
f 93/62/55 96/65/11 57/38/59
f 93/62/55 57/38/59 59/37/60
f 93/62/55 59/37/60 61/39/55
f 94/66/61 95/63/62 90/60/61
f 90/60/40 95/63/39 92/59/39
f 97/67/61 94/66/61 9/68/61
f 9/9/61 94/66/61 8/8/61
f 94/66/61 90/60/61 8/8/61
f 9/68/61 2/69/61 97/67/61
f 90/60/61 91/61/63 86/56/61
f 86/56/42 91/61/41 88/55/41
f 90/60/61 86/56/61 83/53/61
f 90/60/61 83/53/61 8/8/61
f 86/56/61 87/57/62 83/53/61
f 83/53/44 87/57/43 84/52/43
f 83/53/61 80/50/61 81/51/61
f 83/53/61 81/51/61 14/15/61
f 83/53/61 14/15/61 8/8/61
f 81/51/61 98/70/64 14/15/61
f 98/70/12 81/51/46 17/17/46
f 14/15/13 98/70/12 16/14/12
f 17/17/46 16/14/12 98/70/12
f 14/15/61 15/16/62 8/8/61
f 8/8/9 15/16/8 10/7/8
f 2/1/2 9/58/1 3/1/1
