# Blender 5.1.0
# www.blender.org
mtllib ballSideTrack10.mtl
o ballSideTrack10
v -12.427968 0.199935 1.337952
v -12.427969 0.177649 1.340627
v 6.572031 0.177648 1.340627
v 6.572031 0.199935 1.337952
v -12.427969 0.152424 1.348541
v -12.427968 0.199935 1.345911
v -12.427969 0.186273 1.345911
v -12.427969 0.161923 1.350915
v -12.972403 0.161923 1.350915
v -12.972402 0.139079 1.360718
v -12.427968 0.139079 1.360718
v -12.972402 0.118676 1.374919
v -12.427968 0.118676 1.374919
v -12.972402 0.101549 1.392936
v -12.427968 0.101549 1.392936
v -12.427969 0.109250 1.378591
v -12.427969 0.129309 1.361371
v 6.572031 0.109249 1.378591
v -12.427969 0.093068 1.399497
v 6.572031 0.093067 1.399497
v -12.427969 0.081425 1.423232
v -12.427968 0.088400 1.414033
v -12.972402 0.088400 1.414033
v -12.972401 0.079766 1.437344
v -12.427967 0.079766 1.437344
v -12.972401 0.076002 1.461916
v -12.427967 0.076002 1.461916
v -12.972402 0.077261 1.486742
v -12.427968 0.077261 1.486742
v -12.427968 0.073460 1.475228
v -12.427969 0.074799 1.448825
v 6.572031 0.073459 1.475228
v 6.572031 0.077462 1.501360
v -12.427968 0.077463 1.501360
v -12.427968 0.086645 1.526151
v -12.427968 0.083492 1.510808
v -12.972402 0.083492 1.510808
v -12.972402 0.094440 1.533126
v -12.427968 0.094440 1.533126
v -12.972402 0.109656 1.552783
v -12.427968 0.109656 1.552783
v -12.972402 0.128518 1.568975
v -12.427968 0.128518 1.568975
v -12.427968 0.118843 1.567748
v -12.427968 0.100629 1.548587
v 6.572031 0.118842 1.567748
v -12.427968 0.140541 1.582850
v 6.572031 0.140541 1.582850
v -12.427968 0.164836 1.593276
v -12.427969 0.150253 1.581039
v -12.972403 0.150253 1.581039
v -12.972403 0.173971 1.588481
v -12.427969 0.173971 1.588481
v -12.972404 0.198702 1.590996
v -12.427970 0.198702 1.590996
v -12.972404 0.199935 1.590871
v -12.427970 0.199935 1.590871
v -12.427970 0.199935 1.599325
v 6.572030 0.199935 1.599325
v 6.572031 0.164835 1.593276
v 6.572031 0.152424 1.348541
v 6.572031 0.081425 1.423232
v 6.572031 0.086644 1.526151
v 6.572031 0.100628 1.548587
v 6.572031 0.074798 1.448825
v 6.572031 0.129309 1.361371
v -12.972403 0.223433 1.588481
v -12.427969 0.223433 1.588481
v -12.972403 0.247152 1.581039
v -12.427969 0.247152 1.581039
v -12.972403 0.268887 1.568975
v -12.427969 0.268887 1.568975
v -12.972403 0.287748 1.552783
v -12.427969 0.287748 1.552783
v -12.972403 0.302965 1.533126
v -12.427969 0.302965 1.533126
v -12.972403 0.313912 1.510807
v -12.427969 0.313912 1.510807
v -12.972403 0.320143 1.486742
v -12.427969 0.320143 1.486742
v -12.972403 0.321402 1.461916
v -12.427969 0.321402 1.461916
v -12.972402 0.317638 1.437344
v -12.427968 0.317638 1.437344
v -12.972402 0.309004 1.414032
v -12.427968 0.309004 1.414032
v -12.972402 0.295855 1.392936
v -12.427968 0.295855 1.392936
v -12.972402 0.278728 1.374919
v -12.427968 0.278728 1.374919
v -12.972402 0.258325 1.360718
v -12.427968 0.258325 1.360718
v -12.972402 0.235481 1.350915
v -12.427968 0.235481 1.350915
v -12.972402 0.211131 1.345911
v -12.427968 0.211131 1.345911
v -12.972402 0.199935 1.345911
v -12.972403 0.186273 1.345911
vn 1.0000 -0.0000 -0.0000
vn 1.0000 -0.0001 -0.0005
vn 1.0000 -0.0001 -0.0000
vn -0.0000 0.1191 0.9929
vn -0.0000 0.2101 0.9777
vn 1.0000 -0.0000 0.0002
vn -0.0000 0.2994 0.9541
vn -0.0000 0.1012 0.9949
vn -0.0000 0.4853 0.8743
vn 1.0000 -0.0002 -0.0000
vn -0.0000 0.6514 0.7588
vn 1.0000 -0.0002 -0.0004
vn -0.0000 0.7908 0.6121
vn 1.0000 -0.0002 -0.0001
vn 1.0000 -0.0007 -0.0010
vn -0.0000 0.5713 0.8208
vn -0.0000 0.7248 0.6890
vn -0.0000 0.8486 0.5290
vn 1.0000 -0.0004 -0.0000
vn 1.0000 -0.0000 -0.0002
vn 1.0000 -0.0007 -0.0000
vn -0.0000 0.8978 0.4404
vn -0.0000 0.9681 0.2507
vn 1.0000 -0.0035 -0.0003
vn -0.0000 0.9987 0.0506
vn 1.0000 -0.0022 -0.0000
vn -0.0000 0.9885 -0.1514
vn 1.0000 -0.0000 -0.0001
vn -0.0000 0.9885 0.1514
vn -0.0000 0.9987 -0.0506
vn -0.0000 0.9681 -0.2507
vn -0.0000 0.9378 -0.3473
vn -0.0000 0.8486 -0.5290
vn -0.0000 0.7248 -0.6890
vn 1.0000 -0.0000 0.0001
vn -0.0000 0.5713 -0.8208
vn -0.0000 0.7908 -0.6121
vn -0.0000 0.6514 -0.7588
vn -0.0000 0.4853 -0.8743
vn 1.0000 0.0001 -0.0000
vn -0.0000 0.3944 -0.9190
vn -0.0000 0.2013 -0.9795
vn -0.0000 0.0001 -1.0000
vn -0.0000 -0.0000 -1.0000
vn -0.0000 -0.1011 -0.9949
vn -0.0000 -0.1012 -0.9949
vn -0.0000 0.2840 -0.9588
vn -0.0000 0.0853 -0.9964
vn -1.0000 -0.0000 -0.0000
vn -1.0000 -0.0000 0.0001
vn -0.0000 0.8978 -0.4404
vn -1.0000 -0.0000 -0.0001
vn -0.0000 0.9378 0.3473
vn -0.0000 0.3944 0.9190
vn -0.0000 -0.2013 -0.9795
vn -0.0000 -0.3944 -0.9190
vn -0.0000 -0.5713 -0.8208
vn -0.0000 -0.7248 -0.6890
vn -0.0000 -0.8486 -0.5290
vn -0.0000 -0.9378 -0.3473
vn -0.0000 -0.9885 -0.1514
vn -0.0000 -0.9987 0.0506
vn -0.0000 -0.9987 0.0507
vn -0.0000 -0.9681 0.2507
vn -0.0000 -0.8978 0.4404
vn -0.0000 -0.7908 0.6121
vn -0.0000 -0.6514 0.7588
vn -0.0000 -0.4853 0.8743
vn -0.0000 -0.2994 0.9541
vn -0.0000 -0.1012 0.9949
vn -0.0000 -0.0000 1.0000
vt 0.685484 0.000000
vt 0.491936 0.000000
vt 0.472326 0.000000
vt 0.750000 0.000000
vt 0.717742 0.000000
vt 0.717742 1.000000
vt 0.750000 1.000000
vt 0.605396 0.000000
vt 0.465834 0.000000
vt 0.485565 0.000000
vt 0.648884 0.000000
vt 0.624084 0.000000
vt 0.596092 0.000000
vt 0.620968 0.000000
vt 0.653226 0.000000
vt 0.620968 1.000000
vt 0.588710 1.000000
vt 0.556452 0.000000
vt 0.588710 0.000000
vt 0.566858 0.000000
vt 0.536937 0.000000
vt 0.506600 0.000000
vt 0.476020 0.000000
vt 0.524194 0.000000
vt 0.491936 1.000000
vt 0.459678 1.000000
vt 0.459678 0.000000
vt 0.427419 0.000000
vt 0.445326 0.000000
vt 0.414619 0.000000
vt 0.383982 0.000000
vt 0.353482 0.000000
vt 0.362903 0.000000
vt 0.395161 0.000000
vt 0.362903 1.000000
vt 0.330645 1.000000
vt 0.298387 0.000000
vt 0.330645 0.000000
vt 0.323212 0.000000
vt 0.293986 0.000000
vt 0.267265 0.000000
vt 0.266030 0.000000
vt 0.259134 0.000000
vt 0.000000 1.000000
vt 2.572395 -16.913174
vt 2.596645 -16.913174
vt 2.596645 -15.280785
vt 0.298387 1.000000
vt 0.685484 1.000000
vt 2.548145 -15.280785
vt 0.556452 1.000000
vt 0.427419 1.000000
vt 0.395161 1.000000
vt 0.524194 1.000000
vt 0.653226 1.000000
vt -20.630919 -3.966995
vt -20.687901 -3.972789
vt -20.745417 -3.990835
vt -20.798122 -4.020090
vt -20.843863 -4.059355
vt -20.880760 -4.107024
vt -20.907310 -4.161145
vt -20.922422 -4.219502
vt -20.925472 -4.279706
vt -20.916346 -4.339293
vt -20.895411 -4.395821
vt -20.863523 -4.446979
vt -20.821991 -4.490670
vt -20.772514 -4.525106
vt -20.717119 -4.548880
vt -20.658072 -4.561014
vt -20.630922 -4.561014
s 1
usemtl metall
f 5/1/1 2/2/2 1/3/3
f 1/4/4 2/5/5 3/6/5
f 3/6/5 4/7/4 1/4/4
f 5/1/1 1/3/3 8/8/6
f 1/3/3 6/9/3 7/10/1
f 1/3/3 7/10/1 8/8/6
f 9/8/7 8/8/7 7/10/8
f 8/8/7 9/8/7 10/11/9
f 10/11/9 11/11/9 8/8/7
f 5/1/1 8/8/6 11/11/10
f 11/11/9 10/11/9 12/12/11
f 12/12/11 13/12/11 11/11/9
f 5/1/1 11/11/10 13/12/12
f 13/12/11 12/12/11 14/13/13
f 14/13/13 15/13/13 13/12/11
f 16/14/14 13/12/12 15/13/15
f 16/14/14 5/1/1 13/12/12
f 16/14/14 17/15/1 5/1/1
f 17/15/16 16/14/17 18/16/17
f 20/17/18 18/16/17 16/14/17
f 21/18/19 19/19/20 16/14/14
f 16/14/17 19/19/18 20/17/18
f 21/18/19 16/14/14 22/20/21
f 16/14/14 15/13/15 22/20/21
f 23/20/22 22/20/22 15/13/13
f 22/20/22 23/20/22 24/21/23
f 24/21/23 25/21/23 22/20/22
f 21/18/19 22/20/21 25/21/24
f 25/21/23 24/21/23 26/22/25
f 26/22/25 27/22/25 25/21/23
f 27/22/26 21/18/19 25/21/24
f 27/22/25 26/22/25 28/23/27
f 28/23/27 29/23/27 27/22/25
f 27/22/26 29/23/28 30/2/10
f 27/22/26 30/2/10 21/18/19
f 30/2/10 31/24/10 21/18/19
f 31/24/29 30/2/30 32/25/30
f 33/26/31 32/25/30 30/2/30
f 34/27/31 33/26/31 30/2/30
f 35/28/1 34/27/28 30/2/10
f 36/29/1 35/28/1 30/2/10
f 29/23/28 36/29/1 30/2/10
f 37/29/32 36/29/32 29/23/27
f 36/29/32 37/29/32 38/30/33
f 38/30/33 39/30/33 36/29/32
f 36/29/1 39/30/1 35/28/1
f 39/30/33 38/30/33 40/31/34
f 40/31/34 41/31/34 39/30/33
f 39/30/1 41/31/35 35/28/1
f 41/31/34 40/31/34 42/32/36
f 42/32/36 43/32/36 41/31/34
f 41/31/35 43/32/1 44/33/1
f 41/31/35 44/33/1 35/28/1
f 44/33/1 45/34/20 35/28/1
f 45/34/37 44/33/38 46/35/38
f 48/36/39 46/35/38 44/33/38
f 49/37/20 47/38/1 44/33/1
f 44/33/38 47/38/39 48/36/39
f 50/39/40 49/37/20 44/33/1
f 43/32/1 50/39/40 44/33/1
f 51/39/41 50/39/41 43/32/36
f 50/39/41 51/39/41 52/40/42
f 52/40/42 53/40/42 50/39/41
f 50/39/40 53/40/28 49/37/20
f 53/40/42 52/40/42 54/41/43
f 54/41/43 55/41/44 53/40/42
f 53/40/28 55/41/1 49/37/20
f 55/41/44 54/41/43 56/42/45
f 56/42/45 57/42/46 55/41/44
f 55/41/1 57/42/1 58/43/1
f 55/41/1 58/43/1 49/37/20
f 49/44/47 58/44/48 59/44/48
f 60/45/49 59/46/49 4/47/49
f 59/44/48 60/15/47 49/44/47
f 47/38/39 49/37/47 60/48/47
f 60/48/47 48/36/39 47/38/39
f 48/36/49 60/45/49 46/35/49
f 60/45/49 3/6/49 61/49/49
f 4/47/49 3/50/49 60/45/49
f 60/45/49 61/49/49 62/51/49
f 60/45/49 62/51/49 63/52/49
f 60/45/49 63/52/49 46/35/49
f 63/52/49 64/53/50 46/35/49
f 64/53/37 63/52/51 35/28/51
f 34/27/31 35/28/51 63/52/51
f 34/27/31 63/52/51 33/26/31
f 32/25/49 33/26/52 63/52/49
f 62/51/49 32/25/49 63/52/49
f 46/35/38 64/53/37 45/34/37
f 35/28/51 45/34/37 64/53/37
f 65/54/29 62/51/53 21/18/53
f 19/19/18 21/18/53 62/51/53
f 62/51/53 20/17/18 19/19/18
f 18/16/49 20/17/49 62/51/49
f 62/51/49 65/54/49 32/25/49
f 61/49/49 18/16/49 62/51/49
f 32/25/30 65/54/29 31/24/29
f 21/18/53 31/24/29 65/54/29
f 66/55/16 61/49/54 5/1/54
f 2/5/5 5/1/54 61/49/54
f 61/49/54 3/6/5 2/5/5
f 61/49/49 66/55/49 18/16/49
f 18/16/17 66/55/16 17/15/16
f 5/1/54 17/15/16 66/55/16
f 57/56/46 56/56/45 67/57/55
f 67/57/55 68/57/55 57/56/46
f 68/57/55 67/57/55 69/58/56
f 69/58/56 70/58/56 68/57/55
f 70/58/56 69/58/56 71/59/57
f 71/59/57 72/59/57 70/58/56
f 72/59/57 71/59/57 73/60/58
f 73/60/58 74/60/58 72/59/57
f 74/60/58 73/60/58 75/61/59
f 75/61/59 76/61/59 74/60/58
f 76/61/59 75/61/59 77/62/60
f 77/62/60 78/62/60 76/61/59
f 78/62/60 77/62/60 79/63/61
f 79/63/61 80/63/61 78/62/60
f 80/63/61 79/63/61 81/64/62
f 81/64/62 82/64/63 80/63/61
f 82/64/63 81/64/62 83/65/64
f 83/65/64 84/65/64 82/64/63
f 84/65/64 83/65/64 85/66/65
f 85/66/65 86/66/65 84/65/64
f 86/66/65 85/66/65 87/67/66
f 87/67/66 88/67/66 86/66/65
f 88/67/66 87/67/66 89/68/67
f 89/68/67 90/68/67 88/67/66
f 90/68/67 89/68/67 91/69/68
f 91/69/68 92/69/68 90/68/67
f 92/69/68 91/69/68 93/70/69
f 93/70/69 94/70/69 92/69/68
f 94/70/69 93/70/69 95/71/70
f 95/71/70 96/71/70 94/70/69
f 96/71/70 95/71/70 97/72/71
f 97/72/71 6/72/71 96/71/70
f 6/9/71 97/9/71 98/10/8
f 98/10/8 7/10/8 6/9/71
f 7/10/8 98/10/8 9/8/7
f 43/32/36 42/32/36 51/39/41
f 29/23/27 28/23/27 37/29/32
f 15/13/13 14/13/13 23/20/22
