# Blender 5.1.0
# www.blender.org
mtllib ballSideTrack11.mtl
o ballSideTrack11
v -12.427968 0.199935 3.137718
v -12.427969 0.177649 3.140392
v -12.427968 0.199935 3.146950
v -12.427969 0.152424 3.148307
v -12.427969 0.186273 3.146950
v -12.427969 0.161923 3.151954
v -12.972403 0.161923 3.151954
v -12.972402 0.139079 3.161757
v -12.427968 0.139079 3.161757
v -12.972402 0.118676 3.175958
v -12.427968 0.118676 3.175958
v -12.972402 0.101549 3.193975
v -12.427968 0.101549 3.193975
v -12.427969 0.109250 3.178357
v -12.427969 0.129309 3.161136
v 6.572031 0.109249 3.178357
v -12.427969 0.093068 3.199262
v 6.572031 0.093067 3.199262
v -12.427969 0.081425 3.222997
v -12.427968 0.088400 3.215071
v -12.972402 0.088400 3.215071
v -12.972401 0.079766 3.238383
v -12.427967 0.079766 3.238383
v -12.972401 0.076002 3.262954
v -12.427967 0.076002 3.262954
v -12.972402 0.077261 3.287781
v -12.427968 0.077261 3.287781
v -12.427968 0.073460 3.274994
v -12.427969 0.074799 3.248590
v 6.572031 0.073459 3.274994
v -12.427968 0.077463 3.301125
v 6.572031 0.077462 3.301125
v -12.427968 0.086645 3.325917
v -12.427968 0.083492 3.311846
v -12.972402 0.083492 3.311846
v -12.972402 0.094440 3.334164
v -12.427968 0.094440 3.334164
v -12.972402 0.109656 3.353822
v -12.427968 0.109656 3.353822
v -12.972402 0.128518 3.370014
v -12.427968 0.128518 3.370014
v -12.427968 0.118843 3.367513
v -12.427968 0.100629 3.348352
v 6.572031 0.118842 3.367513
v -12.427968 0.140541 3.382616
v 6.572031 0.140541 3.382616
v -12.427968 0.164836 3.393041
v -12.427969 0.150253 3.382078
v -12.972403 0.150253 3.382078
v -12.972403 0.173971 3.389520
v -12.427969 0.173971 3.389520
v -12.972404 0.198702 3.392035
v -12.427970 0.198702 3.392035
v -12.972404 0.199935 3.391909
v -12.427970 0.199935 3.391909
v -12.427970 0.199935 3.399090
v 6.572030 0.199935 3.399090
v 6.572031 0.164835 3.393041
v 6.572030 0.239448 3.399090
v 6.572031 0.199935 3.137718
v 6.572030 0.199934 3.399090
v 6.572031 0.200036 3.608971
v 6.572031 0.279447 3.608971
v 6.572030 0.279448 3.439090
v 6.572030 0.278337 3.426868
v 6.572029 0.275003 3.416868
v 6.572030 0.269448 3.409090
v 6.572029 0.261670 3.403535
v 6.572030 0.251670 3.400202
v 6.572031 0.177648 3.140392
v 6.572031 0.152424 3.148307
v 6.572031 0.129309 3.161136
v -12.972403 0.223433 3.389520
v -12.427969 0.223433 3.389520
v -12.972403 0.247152 3.382078
v -12.427969 0.247152 3.382078
v -12.972403 0.268887 3.370014
v -12.427969 0.268887 3.370014
v -12.972403 0.287748 3.353822
v -12.427969 0.287748 3.353822
v -12.972403 0.302965 3.334164
v -12.427969 0.302965 3.334164
v -12.972403 0.313912 3.311846
v -12.427969 0.313912 3.311846
v -12.972403 0.320143 3.287781
v -12.427969 0.320143 3.287781
v -12.972403 0.321402 3.262954
v -12.427969 0.321402 3.262954
v -12.972402 0.317638 3.238383
v -12.427968 0.317638 3.238383
v -12.972402 0.309004 3.215071
v -12.427968 0.309004 3.215071
v -12.972402 0.295855 3.193975
v -12.427968 0.295855 3.193975
v -12.972402 0.278728 3.175958
v -12.427968 0.278728 3.175958
v -12.972402 0.258325 3.161757
v -12.427968 0.258325 3.161757
v -12.972402 0.235481 3.151954
v -12.427968 0.235481 3.151954
v -12.972402 0.211131 3.146950
v -12.427968 0.211131 3.146950
v -12.972402 0.199935 3.146950
v -12.972403 0.186273 3.146950
v 6.572031 0.100628 3.348352
v 6.572031 0.086644 3.325917
v 6.572031 0.074798 3.248590
v 6.572031 0.081425 3.222997
vn 1.0000 -0.0000 -0.0000
vn 1.0000 -0.0001 -0.0002
vn 1.0000 -0.0001 -0.0000
vn 1.0000 -0.0000 0.0002
vn -0.0000 0.2994 0.9541
vn -0.0000 0.1012 0.9949
vn -0.0000 0.4853 0.8743
vn 1.0000 -0.0001 -0.0001
vn -0.0000 0.6514 0.7588
vn 1.0000 -0.0002 -0.0003
vn -0.0000 0.7908 0.6121
vn 1.0000 -0.0004 -0.0006
vn -0.0000 0.5713 0.8208
vn -0.0000 0.7248 0.6890
vn -0.0000 0.8486 0.5290
vn 1.0000 -0.0003 -0.0000
vn 1.0000 -0.0000 -0.0002
vn 1.0000 -0.0005 -0.0000
vn -0.0000 0.8978 0.4404
vn -0.0000 0.9681 0.2507
vn 1.0000 -0.0026 -0.0004
vn -0.0000 0.9987 0.0506
vn 1.0000 -0.0016 -0.0005
vn -0.0000 0.9885 -0.1514
vn 1.0000 -0.0002 -0.0000
vn -0.0000 0.9885 0.1514
vn -0.0000 0.9987 -0.0507
vn -0.0000 0.9987 -0.0506
vn -0.0000 0.9681 -0.2507
vn 1.0000 -0.0000 -0.0001
vn -0.0000 0.9378 -0.3473
vn -0.0000 0.8486 -0.5290
vn -0.0000 0.7248 -0.6890
vn -0.0000 0.5713 -0.8208
vn 1.0000 -0.0000 0.0004
vn -0.0000 0.7908 -0.6121
vn -0.0000 0.6514 -0.7588
vn -0.0000 0.4853 -0.8743
vn 1.0000 0.0001 -0.0003
vn 1.0000 0.0002 -0.0000
vn -0.0000 0.3944 -0.9190
vn -0.0000 0.2013 -0.9795
vn 1.0000 0.0001 -0.0001
vn -0.0000 0.0001 -1.0000
vn -0.0000 -0.0001 -1.0000
vn -0.0000 -0.1011 -0.9949
vn -0.0000 -0.1013 -0.9949
vn -0.0000 0.2840 -0.9588
vn -0.0000 0.0853 -0.9964
vn -0.0000 0.0852 -0.9964
vn -1.0000 -0.0000 -0.0000
vn -0.0000 -1.0000 -0.0000
vn 1.0000 -0.0000 0.0001
vn -0.0000 0.3944 0.9190
vn -0.0000 0.2102 0.9777
vn -0.0000 -0.2013 -0.9795
vn -0.0000 -0.3944 -0.9190
vn -0.0000 -0.5713 -0.8208
vn -0.0000 -0.7248 -0.6890
vn -0.0000 -0.8486 -0.5290
vn -0.0000 -0.9378 -0.3473
vn -0.0000 -0.9885 -0.1514
vn -0.0000 -0.9987 0.0506
vn -0.0000 -0.9681 0.2507
vn -0.0000 -0.8978 0.4404
vn -0.0000 -0.7908 0.6121
vn -0.0000 -0.6514 0.7588
vn -0.0000 -0.4853 0.8743
vn -0.0000 -0.2994 0.9541
vn -0.0000 -0.1012 0.9949
vn -0.0000 -0.0000 1.0000
vn -1.0000 -0.0000 0.0001
vn -0.0000 0.8978 -0.4404
vn -1.0000 -0.0000 -0.0001
vn -0.0000 0.9378 0.3473
vt 0.685484 0.000000
vt 0.653226 0.000000
vt 0.641263 0.000000
vt 0.627964 0.000000
vt 0.637948 0.000000
vt 0.661382 0.000000
vt 0.653249 0.000000
vt 0.625593 0.000000
vt 0.596446 0.000000
vt 0.620968 0.000000
vt 0.620968 1.000000
vt 0.588710 1.000000
vt 0.556452 0.000000
vt 0.588710 0.000000
vt 0.566660 0.000000
vt 0.536495 0.000000
vt 0.506093 0.000000
vt 0.475559 0.000000
vt 0.491936 0.000000
vt 0.524194 0.000000
vt 0.491936 1.000000
vt 0.459678 1.000000
vt 0.427419 0.000000
vt 0.459678 0.000000
vt 0.444985 0.000000
vt 0.414456 0.000000
vt 0.384051 0.000000
vt 0.353854 0.000000
vt 0.362903 0.000000
vt 0.395161 0.000000
vt 0.362903 1.000000
vt 0.330645 1.000000
vt 0.298387 0.000000
vt 0.330645 0.000000
vt 0.324011 0.000000
vt 0.296569 0.000000
vt 0.275715 0.000000
vt 0.275110 0.000000
vt 0.264766 0.000000
vt 0.000000 1.000000
vt 20.901760 -12.466584
vt 20.901760 -12.490834
vt 0.694810 0.000000
vt 23.585175 -21.545307
vt 23.585171 -21.036358
vt 23.585169 -21.448311
vt 23.585169 -21.477947
vt 23.585163 -21.502199
vt 23.585169 -21.521059
vt 23.585173 -21.534531
vt 23.585175 -21.542612
vt 20.901760 -12.515083
vt 0.685484 1.000000
vt 0.717742 1.000000
vt 0.717742 0.000000
vt 0.653226 1.000000
vt 0.298387 1.000000
vt -20.630922 0.400461
vt -20.687904 0.394666
vt -20.745422 0.376620
vt -20.798128 0.347366
vt -20.843868 0.308100
vt -20.880766 0.260431
vt -20.907312 0.206311
vt -20.922422 0.147954
vt -20.925476 0.087751
vt -20.916346 0.028165
vt -20.895411 -0.028364
vt -20.863525 -0.079521
vt -20.821991 -0.123212
vt -20.772514 -0.157649
vt -20.717119 -0.181421
vt -20.658072 -0.193555
vt -20.630922 -0.193555
vt 0.395161 1.000000
vt 0.427419 1.000000
vt 0.524194 1.000000
vt 0.556452 1.000000
s 1
usemtl metall
f 4/1/1 2/2/2 1/3/1
f 1/3/1 3/4/3 5/5/1
f 4/1/1 1/3/1 6/6/4
f 1/3/1 5/5/1 6/6/4
f 7/6/5 6/6/5 5/5/6
f 6/6/5 7/6/5 8/7/7
f 8/7/7 9/7/7 6/6/5
f 4/1/1 6/6/4 9/7/8
f 9/7/7 8/7/7 10/8/9
f 10/8/9 11/8/9 9/7/7
f 4/1/1 9/7/8 11/8/10
f 11/8/9 10/8/9 12/9/11
f 12/9/11 13/9/11 11/8/9
f 14/10/8 11/8/10 13/9/12
f 14/10/8 4/1/1 11/8/10
f 14/10/8 15/2/1 4/1/1
f 15/2/13 14/10/14 16/11/14
f 18/12/15 16/11/14 14/10/14
f 19/13/16 17/14/17 14/10/8
f 14/10/14 17/14/15 18/12/15
f 19/13/16 14/10/8 20/15/18
f 14/10/8 13/9/12 20/15/18
f 21/15/19 20/15/19 13/9/11
f 20/15/19 21/15/19 22/16/20
f 22/16/20 23/16/20 20/15/19
f 19/13/16 20/15/18 23/16/21
f 23/16/20 22/16/20 24/17/22
f 24/17/22 25/17/22 23/16/20
f 19/13/16 23/16/21 25/17/23
f 25/17/22 24/17/22 26/18/24
f 26/18/24 27/18/24 25/17/22
f 28/19/25 25/17/23 27/18/1
f 28/19/25 19/13/16 25/17/23
f 28/19/25 29/20/25 19/13/16
f 29/20/26 28/19/27 30/21/28
f 32/22/29 30/21/28 28/19/27
f 33/23/1 31/24/30 28/19/25
f 28/19/27 31/24/29 32/22/29
f 33/23/1 28/19/25 34/25/1
f 28/19/25 27/18/1 34/25/1
f 35/25/31 34/25/31 27/18/24
f 34/25/31 35/25/31 36/26/32
f 36/26/32 37/26/32 34/25/31
f 33/23/1 34/25/1 37/26/30
f 37/26/32 36/26/32 38/27/33
f 38/27/33 39/27/33 37/26/32
f 33/23/1 37/26/30 39/27/1
f 39/27/33 38/27/33 40/28/34
f 40/28/34 41/28/34 39/27/33
f 42/29/1 39/27/1 41/28/35
f 42/29/1 33/23/1 39/27/1
f 42/29/1 43/30/17 33/23/1
f 43/30/36 42/29/37 44/31/37
f 46/32/38 44/31/37 42/29/37
f 47/33/39 45/34/1 42/29/1
f 42/29/37 45/34/38 46/32/38
f 48/35/40 47/33/39 42/29/1
f 48/35/40 42/29/1 41/28/35
f 49/35/41 48/35/41 41/28/34
f 48/35/41 49/35/41 50/36/42
f 50/36/42 51/36/42 48/35/41
f 48/35/40 51/36/43 47/33/39
f 51/36/42 50/36/42 52/37/44
f 52/37/44 53/37/45 51/36/42
f 51/36/43 53/37/1 47/33/39
f 53/37/45 52/37/44 54/38/46
f 54/38/46 55/38/47 53/37/45
f 53/37/1 55/38/1 56/39/1
f 53/37/1 56/39/1 47/33/39
f 47/40/48 56/40/49 57/40/50
f 58/41/51 57/42/51 60/43/51
f 57/40/50 58/2/48 47/40/48
f 61/44/1 57/44/52 59/44/1
f 63/45/1 62/45/1 61/44/1
f 64/46/1 63/45/1 61/44/1
f 65/47/1 64/46/1 61/44/1
f 66/48/1 65/47/1 61/44/1
f 67/49/53 66/48/1 61/44/1
f 68/50/17 67/49/53 61/44/1
f 68/50/17 61/44/1 69/51/1
f 61/44/1 59/44/1 69/51/1
f 60/43/51 70/52/51 58/41/51
f 71/53/54 70/54/55 2/55/55
f 70/54/51 71/53/51 58/41/51
f 72/56/13 71/53/54 4/1/54
f 2/55/55 4/1/54 71/53/54
f 71/53/51 72/56/51 16/11/51
f 71/53/51 16/11/51 30/21/51
f 71/53/51 30/21/51 44/31/51
f 58/41/51 71/53/51 44/31/51
f 16/11/14 72/56/13 15/2/13
f 4/1/54 15/2/13 72/56/13
f 45/34/38 47/33/48 58/57/48
f 58/57/48 46/32/38 45/34/38
f 46/32/51 58/41/51 44/31/51
f 55/58/47 54/58/46 73/59/56
f 73/59/56 74/59/56 55/58/47
f 74/59/56 73/59/56 75/60/57
f 75/60/57 76/60/57 74/59/56
f 76/60/57 75/60/57 77/61/58
f 77/61/58 78/61/58 76/60/57
f 78/61/58 77/61/58 79/62/59
f 79/62/59 80/62/59 78/61/58
f 80/62/59 79/62/59 81/63/60
f 81/63/60 82/63/60 80/62/59
f 82/63/60 81/63/60 83/64/61
f 83/64/61 84/64/61 82/63/60
f 84/64/61 83/64/61 85/65/62
f 85/65/62 86/65/62 84/64/61
f 86/65/62 85/65/62 87/66/63
f 87/66/63 88/66/63 86/65/62
f 88/66/63 87/66/63 89/67/64
f 89/67/64 90/67/64 88/66/63
f 90/67/64 89/67/64 91/68/65
f 91/68/65 92/68/65 90/67/64
f 92/68/65 91/68/65 93/69/66
f 93/69/66 94/69/66 92/68/65
f 94/69/66 93/69/66 95/70/67
f 95/70/67 96/70/67 94/69/66
f 96/70/67 95/70/67 97/71/68
f 97/71/68 98/71/68 96/70/67
f 98/71/68 97/71/68 99/72/69
f 99/72/69 100/72/69 98/71/68
f 100/72/69 99/72/69 101/73/70
f 101/73/70 102/73/70 100/72/69
f 102/73/70 101/73/70 103/74/71
f 103/74/71 3/74/71 102/73/70
f 3/4/71 103/4/71 104/5/6
f 104/5/6 5/5/6 3/4/71
f 5/5/6 104/5/6 7/6/5
f 41/28/34 40/28/34 49/35/41
f 44/31/37 105/75/36 43/30/36
f 106/76/51 105/75/72 44/31/51
f 30/21/51 106/76/51 44/31/51
f 105/75/36 106/76/73 33/23/73
f 31/24/29 33/23/73 106/76/73
f 106/76/73 32/22/29 31/24/29
f 30/21/51 32/22/74 106/76/51
f 33/23/73 43/30/36 105/75/36
f 27/18/24 26/18/24 35/25/31
f 30/21/28 107/77/26 29/20/26
f 108/78/51 107/77/51 30/21/51
f 16/11/51 108/78/51 30/21/51
f 107/77/26 108/78/75 19/13/75
f 17/14/15 19/13/75 108/78/75
f 108/78/75 18/12/15 17/14/15
f 16/11/51 18/12/51 108/78/51
f 19/13/75 29/20/26 107/77/26
f 13/9/11 12/9/11 21/15/19
