# Blender 5.1.0
# www.blender.org
mtllib ballSideTrack8.mtl
o ballSideTrack8
v 6.572030 0.239448 1.874113
v 6.572030 0.251670 1.873002
v 6.572030 0.199985 1.874113
v 6.572029 0.261670 1.869669
v 6.572030 0.199985 1.599325
v 6.572030 0.251670 1.600436
v 6.572029 0.261670 1.603769
v 6.572030 0.269448 1.609325
v 6.572029 0.275003 1.617102
v 6.572030 0.278337 1.627102
v 6.572030 0.279448 1.639325
v 6.572031 0.279447 1.736719
v 6.572030 0.279448 1.834113
v 6.572030 0.278337 1.846335
v 6.572029 0.275003 1.856335
v 6.572030 0.269448 1.864113
v 6.572030 0.239448 1.599325
vn 1.0000 -0.0000 -0.0004
vn 1.0000 -0.0000 -0.0000
vn 0.0662 -0.9978 -0.0000
vn 1.0000 -0.0000 0.0001
vn 0.5907 -0.0000 0.8069
vn 1.0000 0.0001 -0.0000
vn 1.0000 -0.0001 -0.0000
vt 23.585175 -22.609606
vt 23.585175 -22.606911
vt 23.585173 -22.617689
vt 23.585169 -22.631163
vt 23.585175 -23.273272
vt 23.585175 -23.270576
vt 23.585173 -23.262493
vt 23.585169 -23.249020
vt 23.585163 -23.230156
vt 23.585169 -23.205904
vt 23.585169 -23.176268
vt 23.585171 -22.940092
vt 23.585169 -22.703915
vt 23.585169 -22.674274
vt 23.585163 -22.650024
s 1
usemtl metall
f 2/1/1 1/2/2 3/2/3
f 4/3/4 2/1/1 3/2/3
f 4/3/4 3/2/3 16/4/2
f 3/2/3 5/5/5 6/6/2
f 3/2/3 6/6/2 7/7/2
f 3/2/3 7/7/2 8/8/2
f 3/2/3 8/8/2 9/9/6
f 3/2/3 9/9/6 10/10/7
f 3/2/3 10/10/7 11/11/2
f 3/2/3 11/11/2 12/12/2
f 3/2/3 12/12/2 13/13/2
f 3/2/3 13/13/2 14/14/2
f 3/2/3 14/14/2 15/15/2
f 3/2/3 15/15/2 16/4/2
f 5/5/5 17/5/2 6/6/2
