# Blender 5.1.0
# www.blender.org
mtllib ballSideTrack9.mtl
o ballSideTrack9
v -12.427970 0.199935 0.074348
v 6.572030 0.199935 0.074348
v -12.427968 0.164836 0.080396
v -12.427968 0.140541 0.090822
v -12.427970 0.199935 0.083220
v -12.427971 0.186273 0.083220
v -12.427970 0.161923 0.088224
v -12.972404 0.161923 0.088224
v -12.972403 0.139079 0.098027
v -12.427969 0.139079 0.098027
v -12.972402 0.118676 0.112228
v -12.427968 0.118676 0.112228
v -12.972401 0.101549 0.130245
v -12.427967 0.101549 0.130245
v -12.427968 0.100629 0.125086
v -12.427968 0.118843 0.105925
v 6.572031 0.118842 0.105925
v 6.572031 0.100628 0.125086
v -12.427968 0.086645 0.147521
v -12.427966 0.088400 0.151341
v -12.427968 0.077463 0.172313
v 6.572031 0.086644 0.147521
v 6.572031 0.077462 0.172313
v -12.427968 0.073460 0.198444
v -12.427966 0.076002 0.199224
v -12.427966 0.079766 0.174652
v -12.972400 0.079766 0.174652
v -12.972400 0.076002 0.199224
v -12.972400 0.077261 0.224051
v -12.427966 0.077261 0.224051
v -12.972400 0.083492 0.248116
v -12.427966 0.083492 0.248116
v -12.972401 0.094440 0.270434
v -12.427967 0.094440 0.270434
v -12.972402 0.109656 0.290092
v -12.427968 0.109656 0.290092
v -12.972403 0.128518 0.306284
v -12.427969 0.128518 0.306284
v -12.972404 0.150253 0.318348
v -12.427970 0.150253 0.318348
v -12.972404 0.173971 0.325790
v -12.427971 0.173971 0.325790
v -12.972405 0.198702 0.328305
v -12.427972 0.198702 0.328305
v -12.972402 0.199935 0.328179
v -12.427968 0.199935 0.328179
v -12.972402 0.223433 0.325790
v -12.427968 0.223433 0.325790
v -12.972402 0.247152 0.318348
v -12.427968 0.247152 0.318348
v -12.972402 0.268887 0.306284
v -12.427968 0.268887 0.306284
v -12.972402 0.287748 0.290092
v -12.427968 0.287748 0.290092
v -12.972402 0.302965 0.270434
v -12.427968 0.302965 0.270434
v -12.972402 0.313912 0.248116
v -12.427968 0.313912 0.248116
v -12.972402 0.320143 0.224051
v -12.427968 0.320143 0.224051
v -12.972403 0.321402 0.199224
v -12.427969 0.321402 0.199224
v -12.972403 0.317638 0.174652
v -12.427969 0.317638 0.174652
v -12.972403 0.309004 0.151341
v -12.427969 0.309004 0.151341
v -12.972403 0.295855 0.130245
v -12.427969 0.295855 0.130245
v -12.972403 0.278728 0.112228
v -12.427969 0.278728 0.112228
v -12.972403 0.258325 0.098027
v -12.427969 0.258325 0.098027
v -12.972404 0.235481 0.088224
v -12.427970 0.235481 0.088224
v -12.972404 0.211131 0.083220
v -12.427970 0.211131 0.083220
v -12.972404 0.199935 0.083220
v -12.972404 0.186273 0.083220
v -12.427968 0.199935 0.335720
v -12.427969 0.177649 0.333046
v -12.427969 0.152424 0.325131
v 6.572031 0.152424 0.325131
v 6.572031 0.177648 0.333046
v -12.427969 0.129309 0.312301
v -12.427969 0.109250 0.295081
v 6.572031 0.109249 0.295081
v 6.572031 0.129309 0.312301
v -12.427969 0.093068 0.274176
v -12.427969 0.081425 0.250441
v 6.572031 0.081425 0.250441
v 6.572031 0.093067 0.274176
v -12.427969 0.074799 0.224847
v 6.572031 0.073459 0.198444
v 6.572031 0.074798 0.224847
v 6.572031 0.140541 0.090822
v 6.572031 0.164835 0.080396
v 6.572031 0.199935 0.335720
v -12.972400 0.088400 0.151341
vn -0.0000 0.0853 0.9964
vn -0.0000 0.2840 0.9588
vn 1.0000 0.0001 -0.0000
vn 1.0000 -0.0000 0.0001
vn 1.0000 0.0001 0.0005
vn 1.0000 -0.0001 -0.0000
vn 1.0000 0.0001 0.0003
vn -0.0000 0.2994 0.9541
vn -0.0000 0.1012 0.9949
vn -0.0000 0.4853 0.8743
vn -0.0000 0.6514 0.7588
vn 1.0000 -0.0000 -0.0000
vn -0.0000 0.7908 0.6121
vn 1.0000 -0.0001 -0.0001
vn 1.0000 -0.0002 -0.0002
vn -0.0000 0.8978 0.4404
vn 1.0000 -0.0006 -0.0002
vn 1.0000 -0.0027 -0.0009
vn -0.0000 0.9681 0.2507
vn -0.0000 0.9987 0.0506
vn 1.0000 -0.0007 -0.0000
vn 1.0000 -0.0007 -0.0002
vn -0.0000 0.9885 -0.1514
vn -0.0000 0.9378 -0.3473
vn -0.0000 0.8486 -0.5290
vn -0.0000 0.7248 -0.6890
vn -0.0000 0.5713 -0.8208
vn -0.0000 0.3944 -0.9190
vn -0.0000 0.2013 -0.9795
vn -0.0000 0.0001 -1.0000
vn -0.0000 -0.0001 -1.0000
vn -0.0000 -0.1011 -0.9949
vn -0.0000 -0.1012 -0.9949
vn -0.0000 -0.2013 -0.9795
vn -0.0000 -0.3944 -0.9190
vn -0.0000 -0.5713 -0.8208
vn -0.0000 -0.7248 -0.6890
vn -0.0000 -0.8486 -0.5290
vn -0.0000 -0.9378 -0.3473
vn -0.0000 -0.9885 -0.1514
vn -0.0000 -0.9987 0.0506
vn -0.0000 -0.9681 0.2507
vn -0.0000 -0.8978 0.4404
vn -0.0000 -0.7908 0.6121
vn -0.0000 -0.6514 0.7588
vn -0.0000 -0.4853 0.8743
vn -0.0000 -0.2994 0.9541
vn -0.0000 -0.1012 0.9949
vn -0.0000 -0.0000 1.0000
vn 0.9997 -0.0052 -0.0236
vn 1.0000 -0.0005 -0.0014
vn 1.0000 0.0001 -0.0003
vn 1.0000 -0.0000 -0.0004
vn -0.0000 0.2102 -0.9777
vn 1.0000 0.0001 -0.0001
vn 1.0000 -0.0004 0.0001
vn 1.0000 0.0001 -0.0002
vn 1.0000 0.0001 0.0001
vn 1.0000 -0.0006 0.0010
vn 1.0000 -0.0011 0.0002
vn 1.0000 -0.0005 0.0003
vn 0.9993 -0.0355 0.0134
vn -1.0000 -0.0000 -0.0000
vn -1.0000 -0.0000 0.0001
vn -1.0000 -0.0000 -0.0002
vt 0.000000 1.000000
vt 0.330645 0.000000
vt -0.003240 1.068619
vt 0.093429 0.752093
vt 0.021787 1.032936
vt 0.024249 0.994634
vt 0.318981 0.083002
vt 0.362966 0.032583
vt 0.396341 0.020265
vt 0.395161 0.000000
vt 0.362903 0.000000
vt 0.362903 1.000000
vt 0.395161 1.000000
vt 0.427419 0.000000
vt 0.459678 0.000000
vt 0.428293 0.014021
vt 0.427419 1.000000
vt 0.459678 1.000000
vt 0.491936 0.000000
vt 0.490636 0.008711
vt 0.459641 0.010565
vt 0.521389 0.007853
vt 0.551934 0.007710
vt 0.582251 0.008185
vt 0.612291 0.009227
vt 0.641983 0.010823
vt 0.671163 0.013128
vt 0.698872 0.017610
vt 0.713278 0.044202
vt 0.712791 0.047696
vt -20.630922 -7.028977
vt -20.687902 -7.034772
vt -20.745420 -7.052818
vt -20.798124 -7.082073
vt -20.843863 -7.121338
vt -20.880762 -7.169007
vt -20.907310 -7.223128
vt -20.922421 -7.281486
vt -20.925474 -7.341689
vt -20.916344 -7.401275
vt -20.895407 -7.457805
vt -20.863522 -7.508963
vt -20.821987 -7.552654
vt -20.772512 -7.587091
vt -20.717115 -7.610863
vt -20.658072 -7.622998
vt -20.630919 -7.622997
vt 0.717742 0.000000
vt 0.734063 0.017366
vt 0.685484 0.000000
vt 0.653226 0.000000
vt 0.685484 1.000000
vt 0.717742 1.000000
vt 0.620968 0.000000
vt 0.588710 0.000000
vt 0.620968 1.000000
vt 0.653226 1.000000
vt 0.556452 0.000000
vt 0.524194 0.000000
vt 0.556452 1.000000
vt 0.588710 1.000000
vt 0.491936 1.000000
vt 0.524194 1.000000
vt 0.330645 1.000000
vt 0.298387 1.000000
vt 12.166405 -13.649254
vt 0.298387 0.000000
vt 12.166405 -12.539336
vt 0.617970 0.000000
vt 0.556475 0.000000
s 1
usemtl metall
f 2/1/1 1/1/1 3/1/2
f 4/2/3 3/1/3 1/3/4
f 4/2/3 1/3/4 7/4/5
f 1/3/4 5/5/6 6/6/7
f 1/3/4 6/6/7 7/4/5
f 8/4/8 7/4/8 6/6/9
f 7/4/8 8/4/8 9/7/10
f 9/7/10 10/7/10 7/4/8
f 4/2/3 7/4/5 10/7/3
f 10/7/10 9/7/10 11/8/11
f 11/8/11 12/8/11 10/7/10
f 4/2/3 10/7/3 12/8/12
f 12/8/11 11/8/11 13/9/13
f 13/9/13 14/9/13 12/8/11
f 15/10/14 12/8/12 14/9/15
f 15/10/14 4/2/3 12/8/12
f 15/10/14 16/11/12 4/2/3
f 17/12/11 16/11/11 15/10/13
f 15/10/13 18/13/13 17/12/11
f 18/13/13 15/10/13 19/14/16
f 15/10/14 21/15/17 19/14/12
f 15/10/14 14/9/15 20/16/18
f 15/10/14 20/16/18 21/15/17
f 22/17/16 19/14/16 21/15/19
f 21/15/19 23/18/19 22/17/16
f 23/18/19 21/15/19 24/19/20
f 25/20/21 24/19/21 21/15/17
f 26/21/22 25/20/21 21/15/17
f 20/16/18 26/21/22 21/15/17
f 27/21/19 26/21/19 20/16/16
f 26/21/19 27/21/19 28/20/20
f 28/20/20 25/20/20 26/21/19
f 25/20/20 28/20/20 29/22/23
f 29/22/23 30/22/23 25/20/20
f 30/22/23 29/22/23 31/23/24
f 31/23/24 32/23/24 30/22/23
f 32/23/24 31/23/24 33/24/25
f 33/24/25 34/24/25 32/23/24
f 34/24/25 33/24/25 35/25/26
f 35/25/26 36/25/26 34/24/25
f 36/25/26 35/25/26 37/26/27
f 37/26/27 38/26/27 36/25/26
f 38/26/27 37/26/27 39/27/28
f 39/27/28 40/27/28 38/26/27
f 40/27/28 39/27/28 41/28/29
f 41/28/29 42/28/29 40/27/28
f 42/28/29 41/28/29 43/29/30
f 43/29/30 44/29/31 42/28/29
f 44/29/31 43/29/30 45/30/32
f 45/30/32 46/30/33 44/29/31
f 46/31/33 45/31/32 47/32/34
f 47/32/34 48/32/34 46/31/33
f 48/32/34 47/32/34 49/33/35
f 49/33/35 50/33/35 48/32/34
f 50/33/35 49/33/35 51/34/36
f 51/34/36 52/34/36 50/33/35
f 52/34/36 51/34/36 53/35/37
f 53/35/37 54/35/37 52/34/36
f 54/35/37 53/35/37 55/36/38
f 55/36/38 56/36/38 54/35/37
f 56/36/38 55/36/38 57/37/39
f 57/37/39 58/37/39 56/36/38
f 58/37/39 57/37/39 59/38/40
f 59/38/40 60/38/40 58/37/39
f 60/38/40 59/38/40 61/39/41
f 61/39/41 62/39/41 60/38/40
f 62/39/41 61/39/41 63/40/42
f 63/40/42 64/40/42 62/39/41
f 64/40/42 63/40/42 65/41/43
f 65/41/43 66/41/43 64/40/42
f 66/41/43 65/41/43 67/42/44
f 67/42/44 68/42/44 66/41/43
f 68/42/44 67/42/44 69/43/45
f 69/43/45 70/43/45 68/42/44
f 70/43/45 69/43/45 71/44/46
f 71/44/46 72/44/46 70/43/45
f 72/44/46 71/44/46 73/45/47
f 73/45/47 74/45/47 72/44/46
f 74/45/47 73/45/47 75/46/48
f 75/46/48 76/46/48 74/45/47
f 76/46/48 75/46/48 77/47/49
f 77/47/49 5/47/49 76/46/48
f 5/5/49 77/5/49 78/6/9
f 78/6/9 6/6/9 5/5/49
f 6/6/9 78/6/9 8/4/8
f 44/29/50 46/30/51 80/48/52
f 46/30/51 79/49/12 80/48/52
f 80/48/52 81/50/12 84/51/53
f 82/52/28 81/50/28 80/48/54
f 80/48/54 83/53/54 82/52/28
f 42/28/55 44/29/50 80/48/52
f 42/28/55 80/48/52 84/51/53
f 84/51/53 85/54/12 88/55/56
f 86/56/26 85/54/26 84/51/27
f 84/51/27 87/57/27 86/56/26
f 87/57/27 84/51/27 81/50/28
f 40/27/57 42/28/55 84/51/53
f 38/26/58 40/27/57 84/51/53
f 36/25/59 38/26/58 84/51/53
f 36/25/59 84/51/53 88/55/56
f 88/55/56 89/58/12 92/59/60
f 90/60/24 89/58/24 88/55/25
f 88/55/25 91/61/25 90/60/24
f 91/61/25 88/55/25 85/54/26
f 34/24/61 36/25/59 88/55/56
f 32/23/62 34/24/61 88/55/56
f 32/23/62 88/55/56 92/59/60
f 30/22/60 92/59/60 24/19/21
f 93/62/20 24/19/20 92/59/23
f 92/59/23 94/63/23 93/62/20
f 94/63/23 92/59/23 89/58/24
f 30/22/60 32/23/62 92/59/60
f 23/18/63 93/62/63 94/63/63
f 89/58/24 90/60/24 94/63/23
f 94/63/63 90/60/64 91/61/63
f 18/13/63 23/18/63 94/63/63
f 95/64/63 18/13/63 94/63/63
f 95/64/63 94/63/63 87/57/63
f 94/63/63 91/61/63 87/57/63
f 95/64/10 4/2/10 16/11/11
f 4/2/10 95/64/10 96/65/2
f 96/65/63 95/64/63 83/66/63
f 16/11/11 17/12/11 95/64/10
f 95/64/63 17/12/65 18/13/63
f 95/64/63 87/57/63 83/66/63
f 96/65/2 3/67/2 4/2/10
f 3/1/2 96/51/2 2/1/1
f 97/68/63 2/69/63 96/70/63
f 96/70/63 83/66/63 97/68/63
f 24/19/20 93/62/20 23/18/19
f 85/54/26 86/56/26 91/61/25
f 91/61/63 86/56/65 87/57/63
f 81/50/28 82/52/28 87/57/27
f 87/57/63 82/52/65 83/66/63
f 25/20/21 30/22/60 24/19/21
f 20/16/16 98/16/16 27/21/19
f 98/16/16 20/16/16 14/9/13
f 14/9/13 13/9/13 98/16/16
f 18/13/63 22/17/64 23/18/63
f 19/14/16 22/17/16 18/13/13
