# Blender 5.1.0
# www.blender.org
mtllib ballSideTrack2.mtl
o ballSideTrack2
v 6.572030 0.239448 -1.950392
v 6.572030 0.251670 -1.949280
v 6.572030 0.199985 -1.950392
v 6.572030 0.199985 -1.675603
v 6.572030 0.251670 -1.676714
v 6.572029 0.261670 -1.680048
v 6.572030 0.269448 -1.685603
v 6.572029 0.275003 -1.693381
v 6.572030 0.278337 -1.703381
v 6.572030 0.279448 -1.715603
v 6.572031 0.279447 -1.812997
v 6.572030 0.279448 -1.910392
v 6.572030 0.278337 -1.922614
v 6.572029 0.275003 -1.932614
v 6.572030 0.269448 -1.940392
v 6.572029 0.261670 -1.945947
v 6.572030 0.239448 -1.675603
vn 0.0662 -0.9978 -0.0000
vn 1.0000 -0.0000 -0.0000
vn 1.0000 -0.0000 0.0004
vn 0.2250 -0.9743 -0.0000
vn 1.0000 0.0001 -0.0000
vn 1.0000 -0.0001 -0.0000
vn 1.0000 -0.0000 0.0001
vn 1.0000 -0.0000 -0.0001
vt 23.585175 -22.606911
vt 23.585175 -22.609606
vt 23.585175 -23.270576
vt 23.585175 -23.273272
vt 23.585173 -23.262493
vt 23.585169 -23.249020
vt 23.585163 -23.230156
vt 23.585169 -23.205904
vt 23.585169 -23.176268
vt 23.585171 -22.940092
vt 23.585169 -22.703915
vt 23.585169 -22.674274
vt 23.585163 -22.650024
vt 23.585169 -22.631163
vt 23.585173 -22.617689
s 1
usemtl metall
f 3/1/1 1/1/2 2/2/3
f 5/3/2 4/4/4 3/1/1
f 6/5/2 5/3/2 3/1/1
f 7/6/2 6/5/2 3/1/1
f 8/7/5 7/6/2 3/1/1
f 9/8/6 8/7/5 3/1/1
f 10/9/2 9/8/6 3/1/1
f 11/10/2 10/9/2 3/1/1
f 12/11/2 11/10/2 3/1/1
f 13/12/2 12/11/2 3/1/1
f 14/13/2 13/12/2 3/1/1
f 15/14/7 14/13/2 3/1/1
f 16/15/8 15/14/7 3/1/1
f 16/15/8 3/1/1 2/2/3
f 5/3/2 17/4/2 4/4/4
