# Blender 5.1.0
# www.blender.org
mtllib ballSideTrack1.mtl
o ballSideTrack1
v 6.572030 0.199938 -1.952253
v -12.427970 0.199938 -1.952253
v 6.572031 0.164838 -1.958302
v -12.427968 0.164839 -1.958301
v 6.572031 0.140544 -1.968727
v -12.427968 0.140544 -1.968727
v -12.427968 0.118846 -1.983830
v -12.427968 0.100632 -2.002991
v -12.427968 0.086648 -2.025426
v -12.427968 0.077466 -2.050218
v -12.427968 0.073463 -2.076350
v -12.427969 0.074802 -2.102753
v -12.427969 0.081428 -2.128345
v -12.427969 0.093071 -2.152081
v -12.427969 0.109253 -2.172987
v -12.427969 0.129312 -2.190207
v -12.427969 0.152427 -2.203036
v -12.427969 0.177652 -2.210951
v -12.427968 0.199938 -2.213625
v -12.427968 0.199938 -2.205181
v -12.427972 0.198705 -2.205307
v -12.427971 0.173974 -2.202792
v -12.427970 0.150256 -2.195350
v -12.427969 0.128520 -2.183286
v -12.427968 0.109659 -2.167094
v -12.427967 0.094443 -2.147437
v -12.427966 0.083495 -2.125118
v -12.427966 0.077264 -2.101053
v -12.427966 0.076005 -2.076227
v -12.427966 0.079769 -2.051654
v -12.427966 0.088403 -2.028343
v -12.427967 0.101552 -2.007247
v -12.427968 0.118679 -1.989230
v -12.427969 0.139082 -1.975029
v -12.427970 0.161926 -1.965226
v -12.427971 0.186276 -1.960222
v -12.427970 0.199938 -1.960222
v -12.427970 0.211134 -1.960222
v -12.427970 0.235484 -1.965226
v -12.427969 0.258328 -1.975029
v -12.427969 0.278731 -1.989230
v -12.427969 0.295858 -2.007247
v -12.427969 0.309007 -2.028343
v -12.427969 0.317641 -2.051654
v -12.427969 0.321405 -2.076226
v -12.427968 0.320146 -2.101053
v -12.427968 0.313915 -2.125118
v -12.427968 0.302968 -2.147436
v -12.427968 0.287751 -2.167094
v -12.427968 0.268890 -2.183286
v -12.427968 0.247155 -2.195350
v -12.427968 0.223436 -2.202792
v 6.572031 0.118845 -1.983830
v 6.572031 0.100631 -2.002991
v 6.572031 0.086647 -2.025426
v 6.572031 0.077465 -2.050218
v 6.572031 0.073462 -2.076350
v 6.572031 0.074801 -2.102753
v 6.572031 0.081428 -2.128345
v 6.572031 0.093070 -2.152081
v 6.572031 0.109252 -2.172987
v 6.572031 0.129312 -2.190207
v 6.572031 0.152427 -2.203036
v 6.572031 0.177651 -2.210951
v 6.572031 0.199938 -2.213625
v -12.972402 0.199938 -2.205181
v -12.972405 0.198705 -2.205307
v -12.972404 0.173974 -2.202792
v -12.972404 0.150256 -2.195350
v -12.972403 0.128520 -2.183286
v -12.972402 0.109659 -2.167094
v -12.972401 0.094443 -2.147437
v -12.972400 0.083495 -2.125118
v -12.972400 0.077264 -2.101053
v -12.972400 0.076005 -2.076227
v -12.972400 0.079769 -2.051654
v -12.972400 0.088403 -2.028343
v -12.972401 0.101552 -2.007247
v -12.972402 0.118679 -1.989230
v -12.972403 0.139082 -1.975029
v -12.972404 0.161926 -1.965226
v -12.972404 0.186276 -1.960222
v -12.972404 0.199938 -1.960222
v -12.972404 0.211134 -1.960222
v -12.972404 0.235484 -1.965226
v -12.972403 0.258328 -1.975029
v -12.972403 0.278731 -1.989230
v -12.972403 0.295858 -2.007247
v -12.972403 0.309007 -2.028343
v -12.972403 0.317641 -2.051654
v -12.972403 0.321405 -2.076226
v -12.972402 0.320146 -2.101053
v -12.972402 0.313915 -2.125118
v -12.972402 0.302968 -2.147436
v -12.972402 0.287751 -2.167094
v -12.972402 0.268890 -2.183286
v -12.972402 0.247155 -2.195350
v -12.972402 0.223436 -2.202792
vn -0.0000 0.2840 -0.9588
vn -0.0000 0.0853 -0.9964
vn -0.0000 0.2841 -0.9588
vn -0.0000 0.4853 -0.8743
vn -0.0000 0.6514 -0.7588
vn -0.0000 0.7908 -0.6121
vn -0.0000 0.8978 -0.4404
vn -0.0000 0.9681 -0.2506
vn -0.0000 0.9681 -0.2507
vn -0.0000 0.9987 -0.0506
vn -0.0000 0.9885 0.1514
vn -0.0000 0.9378 0.3473
vn -0.0000 0.8486 0.5290
vn -0.0000 0.7248 0.6890
vn -0.0000 0.5713 0.8208
vn -0.0000 0.3944 0.9190
vn -0.0000 0.2101 0.9777
vn -0.0000 0.2102 0.9777
vn -0.0000 0.1191 0.9929
vn -0.0000 0.1192 0.9929
vn -0.0000 -0.0000 1.0000
vn -0.0000 -0.1011 0.9949
vn -0.0000 -0.1009 0.9949
vn -0.0000 0.2013 0.9795
vn -0.0000 0.3943 0.9190
vn -0.0000 0.2994 -0.9541
vn -0.0000 0.1012 -0.9949
vn -0.0000 -0.0000 -1.0000
vn -0.0000 -0.1012 -0.9949
vn -0.0000 -0.2994 -0.9541
vn -0.0000 -0.4853 -0.8743
vn -0.0000 -0.4853 -0.8744
vn -0.0000 -0.6514 -0.7588
vn -0.0000 -0.7908 -0.6121
vn -0.0000 -0.8978 -0.4404
vn -0.0000 -0.9681 -0.2507
vn -0.0000 -0.9987 -0.0506
vn -0.0000 -0.9885 0.1514
vn -0.0000 -0.9378 0.3473
vn -0.0000 -0.8486 0.5290
vn -0.0000 -0.7248 0.6890
vn -0.0000 -0.5713 0.8208
vn -0.0000 -0.3943 0.9190
vn -0.0000 -0.3944 0.9190
vn -0.0000 -0.2013 0.9795
vn -1.0000 -0.0000 -0.0000
vn -1.0000 -0.0000 0.0002
vn -1.0000 -0.0000 0.0001
vn -1.0000 -0.0000 -0.0001
vn 1.0000 -0.0002 0.0001
vn 1.0000 -0.0000 -0.0000
vn 1.0000 -0.0007 0.0002
vn 1.0000 -0.0008 -0.0000
vn 1.0000 -0.0002 -0.0000
vn 1.0000 -0.0008 -0.0003
vn 1.0000 -0.0000 -0.0002
vn 1.0000 -0.0001 -0.0002
vn 1.0000 0.0001 0.0001
vn 1.0000 -0.0001 -0.0005
vn 1.0000 -0.0002 0.0003
vn 1.0000 -0.0015 -0.0000
vn 1.0000 -0.0014 0.0002
vn 1.0000 0.0001 0.0003
vn 1.0000 -0.0011 -0.0020
vn 1.0000 -0.0001 -0.0001
vn 1.0000 -0.0016 -0.0006
vn 1.0000 -0.0009 -0.0003
vn 0.9914 -0.1291 -0.0198
vn 1.0000 -0.0086 0.0043
vn 1.0000 0.0001 -0.0002
vn 1.0000 -0.0001 -0.0000
vn 1.0000 -0.0000 -0.0001
vn 1.0000 0.0002 -0.0003
vn 1.0000 0.0001 -0.0000
vn 1.0000 0.0001 -0.0001
vn 1.0000 0.0002 -0.0000
vt 0.000000 1.000000
vt 0.653226 0.000000
vt 0.298387 1.000000
vt 0.330645 1.000000
vt 0.330645 0.000000
vt 0.298387 0.000000
vt 0.362903 1.000000
vt 0.362903 0.000000
vt 0.395161 1.000000
vt 0.395161 0.000000
vt 0.427419 1.000000
vt 0.427419 0.000000
vt 0.459678 1.000000
vt 0.459678 0.000000
vt 0.491936 1.000000
vt 0.491936 0.000000
vt 0.524194 1.000000
vt 0.524194 0.000000
vt 0.556452 1.000000
vt 0.556452 0.000000
vt 0.588710 1.000000
vt 0.588710 0.000000
vt 0.620968 1.000000
vt 0.620968 0.000000
vt 0.653226 1.000000
vt 0.685484 1.000000
vt 0.685484 0.000000
vt 0.717742 1.000000
vt 0.717742 0.000000
vt 0.750000 1.000000
vt 0.750000 0.000000
vt 0.713447 0.000056
vt 0.713145 0.000060
vt 0.697896 0.000024
vt 0.670195 0.000018
vt 0.641008 0.000015
vt 0.611332 0.000013
vt 0.581338 0.000011
vt 0.551095 0.000010
vt 0.520649 0.000010
vt 0.490034 0.000010
vt 0.459254 0.000012
vt 0.428253 0.000015
vt 0.396867 0.000020
vt 0.364567 0.000032
vt 0.324864 0.000083
vt 0.129840 0.000896
vt 0.077177 0.001167
vt 0.077828 0.001208
vt -20.658073 -3.260819
vt -20.630922 -3.260819
vt -20.717119 -3.248684
vt -20.772514 -3.224912
vt -20.821991 -3.190475
vt -20.863523 -3.146784
vt -20.895409 -3.095626
vt -20.916348 -3.039098
vt -20.925476 -2.979511
vt -20.922421 -2.919307
vt -20.907312 -2.860950
vt -20.880764 -2.806830
vt -20.843866 -2.759161
vt -20.798124 -2.719895
vt -20.745419 -2.690641
vt -20.687902 -2.672595
vt -20.630924 -2.666801
vt 23.585163 -17.819443
vt -21.813818 -3.613318
vt -22.489172 -17.969149
vt 0.735045 0.000020
vt 0.057160 0.001246
vt 0.056522 0.001166
s 1
usemtl metall
f 4/1/1 2/1/2 1/1/2
f 1/1/2 3/2/3 4/1/1
f 3/3/3 5/4/4 6/5/4
f 6/5/4 4/6/1 3/3/3
f 5/4/4 53/7/5 7/8/5
f 7/8/5 6/5/4 5/4/4
f 53/7/5 54/9/6 8/10/6
f 8/10/6 7/8/5 53/7/5
f 54/9/6 55/11/7 9/12/7
f 9/12/7 8/10/6 54/9/6
f 55/11/7 56/13/8 10/14/9
f 10/14/9 9/12/7 55/11/7
f 56/13/8 57/15/10 11/16/10
f 11/16/10 10/14/9 56/13/8
f 57/15/10 58/17/11 12/18/11
f 12/18/11 11/16/10 57/15/10
f 58/17/11 59/19/12 13/20/12
f 13/20/12 12/18/11 58/17/11
f 59/19/12 60/21/13 14/22/13
f 14/22/13 13/20/12 59/19/12
f 60/21/13 61/23/14 15/24/14
f 15/24/14 14/22/13 60/21/13
f 61/23/14 62/25/15 16/2/15
f 16/2/15 15/24/14 61/23/14
f 62/25/15 63/26/16 17/27/16
f 17/27/16 16/2/15 62/25/15
f 63/26/16 64/28/17 18/29/18
f 18/29/18 17/27/16 63/26/16
f 64/28/17 65/30/19 19/31/20
f 19/31/20 18/29/18 64/28/17
f 21/32/21 20/33/22 66/33/23
f 66/33/23 67/32/21 21/32/21
f 22/34/24 21/32/21 67/32/21
f 67/32/21 68/34/24 22/34/24
f 23/35/16 22/34/24 68/34/24
f 68/34/24 69/35/25 23/35/16
f 24/36/15 23/35/16 69/35/25
f 69/35/25 70/36/15 24/36/15
f 25/37/14 24/36/15 70/36/15
f 70/36/15 71/37/14 25/37/14
f 26/38/13 25/37/14 71/37/14
f 71/37/14 72/38/13 26/38/13
f 27/39/12 26/38/13 72/38/13
f 72/38/13 73/39/12 27/39/12
f 28/40/11 27/39/12 73/39/12
f 73/39/12 74/40/11 28/40/11
f 29/41/10 28/40/11 74/40/11
f 74/40/11 75/41/10 29/41/10
f 30/42/9 29/41/10 75/41/10
f 75/41/10 76/42/9 30/42/9
f 31/43/7 30/42/9 76/42/9
f 76/42/9 77/43/7 31/43/7
f 32/44/6 31/43/7 77/43/7
f 77/43/7 78/44/6 32/44/6
f 33/45/5 32/44/6 78/44/6
f 78/44/6 79/45/5 33/45/5
f 34/46/4 33/45/5 79/45/5
f 79/45/5 80/46/4 34/46/4
f 35/47/26 34/46/4 80/46/4
f 80/46/4 81/47/26 35/47/26
f 36/48/27 35/47/26 81/47/26
f 81/47/26 82/48/27 36/48/27
f 37/49/28 36/48/27 82/48/27
f 82/48/27 83/49/28 37/49/28
f 38/50/29 37/51/28 83/51/28
f 83/51/28 84/50/29 38/50/29
f 39/52/30 38/50/29 84/50/29
f 84/50/29 85/52/30 39/52/30
f 40/53/31 39/52/30 85/52/30
f 85/52/30 86/53/32 40/53/31
f 41/54/33 40/53/31 86/53/32
f 86/53/32 87/54/33 41/54/33
f 42/55/34 41/54/33 87/54/33
f 87/54/33 88/55/34 42/55/34
f 43/56/35 42/55/34 88/55/34
f 88/55/34 89/56/35 43/56/35
f 44/57/36 43/56/35 89/56/35
f 89/56/35 90/57/36 44/57/36
f 45/58/37 44/57/36 90/57/36
f 90/57/36 91/58/37 45/58/37
f 46/59/38 45/58/37 91/58/37
f 91/58/37 92/59/38 46/59/38
f 47/60/39 46/59/38 92/59/38
f 92/59/38 93/60/39 47/60/39
f 48/61/40 47/60/39 93/60/39
f 93/60/39 94/61/40 48/61/40
f 49/62/41 48/61/40 94/61/40
f 94/61/40 95/62/41 49/62/41
f 50/63/42 49/62/41 95/62/41
f 95/62/41 96/63/42 50/63/42
f 51/64/43 50/63/42 96/63/42
f 96/63/42 97/64/44 51/64/43
f 52/65/45 51/64/43 97/64/44
f 97/64/44 98/65/45 52/65/45
f 20/66/22 52/65/45 98/65/45
f 98/65/45 66/66/23 20/66/22
f 65/67/46 64/68/46 3/2/46
f 3/2/46 1/69/46 65/67/46
f 64/68/46 63/26/47 62/25/46
f 62/25/46 61/23/48 60/21/46
f 60/21/46 59/19/49 58/17/46
f 62/25/46 60/21/46 58/17/46
f 58/17/46 57/15/46 56/13/46
f 56/13/46 55/11/49 54/9/46
f 58/17/46 56/13/46 54/9/46
f 54/9/46 53/7/47 5/4/46
f 58/17/46 54/9/46 5/4/46
f 62/25/46 58/17/46 5/4/46
f 64/68/46 62/25/46 5/4/46
f 3/3/46 64/68/46 5/4/46
f 8/10/50 9/12/51 10/14/52
f 11/16/53 12/18/54 13/20/55
f 13/20/55 14/22/56 15/24/57
f 15/24/57 16/2/51 17/27/58
f 17/27/58 18/29/59 19/70/60
f 19/70/60 20/33/61 21/32/62
f 17/27/58 19/70/60 21/32/62
f 17/27/58 21/32/62 22/34/63
f 17/27/58 22/34/63 23/35/63
f 15/24/57 17/27/58 23/35/63
f 15/24/57 23/35/63 24/36/64
f 15/24/57 24/36/64 25/37/65
f 15/24/57 25/37/65 26/38/66
f 13/20/55 15/24/57 26/38/66
f 13/20/55 26/38/66 27/39/67
f 13/20/55 27/39/67 28/40/68
f 11/16/53 13/20/55 28/40/68
f 11/16/53 28/40/68 29/41/53
f 10/14/52 11/16/53 29/41/53
f 10/14/52 29/41/53 30/42/52
f 10/14/52 30/42/52 31/43/69
f 8/10/50 10/14/52 31/43/69
f 8/10/50 31/43/69 32/44/60
f 8/10/50 32/44/60 33/45/51
f 36/48/70 37/49/71 2/71/72
f 35/47/73 36/48/70 2/71/72
f 2/71/72 4/72/74 6/5/75
f 35/47/73 2/71/72 6/5/75
f 34/46/76 35/47/73 6/5/75
f 33/45/51 34/46/76 6/5/75
f 8/10/50 33/45/51 6/5/75
f 8/10/50 6/5/75 7/8/51
