# Blender 5.1.0
# www.blender.org
mtllib bowlingAlleyFloor4.mtl
o bowlingAlleyFloor4
v -12.427968 0.199935 -2.211764
v -13.101129 0.199935 -2.211764
v 6.572031 0.199934 -2.232388
v -12.427968 0.199934 -2.232388
v -13.101129 0.199934 -2.232388
v -13.101129 0.199934 -3.193372
v -13.101129 0.199935 -3.213996
v -12.427968 0.199935 -3.213996
v 6.572031 0.199934 -3.193372
v -12.427968 0.199934 -3.193372
vn -0.0000 1.0000 -0.0000
vt 0.182645 0.707299
vt -0.263298 0.707299
vt -0.263298 0.693636
vt 0.182645 0.693636
vt -5.837699 0.346788
vt -5.837699 -0.294310
vt 6.837698 -0.294310
vt 6.837698 0.346788
vt 0.182645 1.343915
vt -0.263298 1.343915
vt 0.182645 1.357577
vt -0.263298 1.357577
s 1
usemtl Material_#25
f 4/1/1 5/2/1 2/3/1
f 2/3/1 1/4/1 4/1/1
f 10/5/1 4/6/1 3/7/1
f 3/7/1 9/8/1 10/5/1
f 10/9/1 6/10/1 5/2/1
f 5/2/1 4/1/1 10/9/1
f 8/11/1 7/12/1 6/10/1
f 6/10/1 10/9/1 8/11/1
