# Blender 5.1.0
# www.blender.org
mtllib bowlingAlleyFloor1.mtl
o bowlingAlleyFloor1
v -12.427968 0.199935 2.135485
v -13.101129 0.199935 2.135485
v -12.427968 0.199934 2.156109
v 6.572031 0.199934 2.156109
v -13.101129 0.199934 2.156109
v -12.427968 0.199934 3.117094
v 6.572031 0.199934 3.117094
v -13.101129 0.199934 3.117094
v -12.427968 0.199935 3.137718
v -13.101129 0.199935 3.137718
vn -0.0000 1.0000 -0.0000
vt 0.182645 0.707299
vt 0.182645 0.693636
vt -0.263298 0.693636
vt 6.837698 -0.294310
vt -5.837699 -0.294310
vt -5.837699 0.346788
vt -0.263298 0.707299
vt 0.182645 1.343915
vt 6.837698 0.346788
vt -0.263298 1.343915
vt 0.182645 1.357577
vt -0.263298 1.357577
s 1
usemtl Material_#25
f 3/1/1 1/2/1 2/3/1
f 4/4/1 3/5/1 6/6/1
f 2/3/1 5/7/1 3/1/1
f 6/8/1 3/1/1 5/7/1
f 6/6/1 7/9/1 4/4/1
f 5/7/1 8/10/1 6/8/1
f 9/11/1 6/8/1 8/10/1
f 8/10/1 10/12/1 9/11/1
