# Blender 5.1.0
# www.blender.org
mtllib bowlingAlleyFence1.mtl
o bowlingAlleyFence1
v -12.427968 0.199935 -2.211764
v 6.572031 0.199935 -2.211764
v 6.572031 0.199934 -2.232388
v -12.427968 0.199934 -2.232388
v -12.427968 0.199935 -0.411998
v -12.427968 0.199935 -1.414231
v -12.427968 0.199935 -3.213996
v 6.572031 0.199934 -3.193372
v -12.427968 0.199934 -3.193372
v 6.572031 0.199935 -3.213996
v 6.572031 0.199935 -0.411998
v -12.427968 0.199934 -0.432622
v -12.427968 0.199934 -1.393607
v 6.572031 0.199935 -1.414231
v 6.572031 0.199934 -0.432622
v 6.572031 0.199934 -1.393607
v -12.427968 0.199935 2.135485
v 6.572031 0.199935 2.135485
v 6.572031 0.199934 2.156109
v -12.427968 0.199934 2.156109
v -12.427968 0.199935 0.335720
v -12.427968 0.199935 1.337952
v -12.427968 0.199935 3.137718
v 6.572031 0.199934 3.117094
v -12.427968 0.199934 3.117094
v 6.572031 0.199935 3.137718
v 6.572031 0.199935 0.335720
v -12.427968 0.199934 0.356344
v -12.427968 0.199934 1.317329
v 6.572031 0.199935 1.337952
v 6.572031 0.199934 0.356344
v 6.572031 0.199934 1.317329
vn -0.0000 1.0000 -0.0000
vt 0.620968 0.000000
vt 0.000000 0.979375
vt 1.000000 0.000000
vt 1.000000 1.000000
s 1
usemtl podsvetka
f 2/1/1 3/2/1 4/3/1
f 4/3/1 1/4/1 2/1/1
f 9/3/1 8/2/1 10/1/1
f 10/1/1 7/4/1 9/3/1
f 11/1/1 15/2/1 12/3/1
f 12/3/1 5/4/1 11/1/1
f 13/3/1 16/2/1 14/1/1
f 14/1/1 6/4/1 13/3/1
f 18/1/1 17/4/1 20/3/1
f 20/3/1 19/2/1 18/1/1
f 25/3/1 23/4/1 26/1/1
f 26/1/1 24/2/1 25/3/1
f 27/1/1 21/4/1 28/3/1
f 28/3/1 31/2/1 27/1/1
f 29/3/1 22/4/1 30/1/1
f 30/1/1 32/2/1 29/3/1
