# Blender 5.1.0
# www.blender.org
mtllib buildingWalls3.mtl
o buildingWalls3
v 6.572031 2.323794 -3.685249
v -12.427968 2.323794 -3.685249
v -11.890897 1.016656 -3.685249
v -11.885063 1.020822 -3.685249
v -11.880897 1.026655 -3.685249
v -11.878396 1.034156 -3.685249
v -11.877563 1.043323 -3.685249
v -11.877563 2.333705 -3.685249
v 6.572031 1.015412 -3.685249
v -12.427968 1.015412 -3.685249
v -12.427968 2.323794 -2.751621
v 6.572031 2.323794 -2.751621
v -12.427968 2.684793 -2.307592
v 6.572031 2.684793 -2.307592
v 12.723818 1.408137 -3.685249
v 12.723818 1.475216 -3.685249
v 13.144005 1.475216 -3.685249
v 13.144005 1.616627 -3.685249
v 13.144005 2.241316 -3.685249
v 13.144005 2.323925 -3.685249
v 13.144005 1.616627 -0.532332
v 13.144005 1.616627 -1.583304
v 13.144005 1.616627 -2.634277
v 13.144005 2.241316 -0.532332
v 13.144005 2.241316 -1.583304
v 13.144005 2.241316 -2.634277
v 13.144321 2.684793 -2.307592
v 8.537381 2.334152 -3.685249
v 11.142077 2.334152 -3.685249
v 10.119122 2.334152 -3.685249
v 11.142077 1.684148 -3.685249
v 10.119122 1.684148 -3.685249
v 10.119122 0.200036 -3.825811
v 11.142077 0.200036 -3.825811
v 11.142077 1.684148 -3.825811
v 10.119122 1.684148 -3.825811
v 10.476924 0.200036 -3.825811
v 10.480924 1.684148 -3.825811
v 10.480924 0.200036 -3.825811
v 10.476924 1.684148 -3.825811
v 13.265982 2.323794 -3.685249
v 13.265982 2.323794 -2.751621
v 8.537381 1.018288 -3.685249
v 6.572412 1.015254 -3.685249
v 12.723818 1.017936 -3.685249
v 11.142077 1.017936 -3.685249
v 10.119122 1.017936 -3.685249
v 8.537381 1.017936 -3.685249
v 11.142077 0.200036 -3.685249
v 10.119122 0.200036 -3.685249
v 12.212936 1.017936 -3.685249
v -11.877563 2.727535 -3.685249
v -11.877563 2.333705 -0.038139
v -12.427968 2.684793 -0.038139
v 13.144005 1.475216 -0.038139
v 13.144005 1.616627 -0.038139
v 13.144005 2.329349 -0.038139
v -11.877563 2.727535 -0.038139
v 6.572031 1.015412 3.608971
v -12.427968 1.015412 3.608971
v -11.888397 1.024156 -0.038139
v -11.880897 1.026655 3.608971
v -11.885063 1.020822 3.608971
v -11.878396 1.034156 3.608970
v -11.877563 1.043323 3.608971
v 6.572031 2.323794 3.608971
v -12.427968 2.323794 3.608971
v 6.572031 2.323794 2.675343
v -12.427968 2.323794 2.675343
v 6.572031 2.684793 2.231313
v -12.427968 2.684793 2.231313
v 12.723818 1.408137 3.608971
v 12.723818 1.475216 3.608971
v 13.144005 1.475216 3.608971
v 13.144005 1.616627 0.456053
v 13.144005 1.616627 1.507026
v 13.144005 1.616627 2.557998
v 13.144005 1.616627 3.608971
v 13.144005 2.241316 3.608971
v 13.144005 2.241316 2.557998
v 13.144005 2.241316 1.507026
v 13.144005 2.241316 0.456053
v 13.144005 2.241316 -0.038139
v 13.144005 2.323925 3.608971
v 10.119122 2.334152 3.608971
v 8.537381 2.334152 3.608971
v 8.537381 1.018288 3.608971
v 8.537381 1.017936 3.608971
v 10.119122 1.017936 3.608971
v 10.119122 1.684148 3.608971
v 11.142077 2.334152 3.608971
v 11.142077 1.684148 3.608971
v 11.142077 1.017936 3.608971
v 12.212936 1.017936 3.608971
v 11.142077 0.200036 3.608971
v 11.142077 1.684148 3.749533
v 11.142077 0.200036 3.749533
v 10.119122 0.200036 3.608971
v 10.119122 0.200036 3.749533
v 10.119122 1.684148 3.749533
v 10.476924 0.200036 3.749533
v 10.476924 1.684148 3.749533
v 10.480924 0.200036 3.749533
v 10.480924 1.684148 3.749533
v 6.572412 1.015254 3.608971
v 13.265982 2.323794 3.608971
v 13.265982 2.323794 2.675343
v 12.723818 1.017936 3.608971
v -11.890897 1.016656 3.608971
v -11.877563 2.333705 3.608971
v 6.572032 2.684793 -0.038139
v 13.144321 2.684793 2.231313
v 13.144321 2.684793 -0.038139
v -11.877563 2.727535 3.608971
vn 0.8912 -0.4537 0.0015
vn 0.7185 -0.6955 -0.0000
vn 0.7071 -0.7071 0.0013
vn 0.9789 -0.2045 0.0021
vn 0.9989 -0.0460 0.0016
vn -0.0000 -0.0000 1.0000
vn -0.0000 -1.0000 -0.0000
vn -1.0000 -0.0000 -0.0000
vn -1.0000 0.0004 -0.0000
vn 1.0000 -0.0000 -0.0000
vn -0.0000 0.0004 1.0000
vn -0.0000 0.0019 1.0000
vn 0.4537 -0.8912 0.0015
vn -1.0000 0.0009 -0.0000
vn -1.0000 0.0003 -0.0000
vn 1.0000 -0.0065 -0.0000
vn 0.8912 -0.4537 -0.0015
vn 0.7071 -0.7071 -0.0013
vn 0.9789 -0.2045 -0.0021
vn 0.9989 -0.0460 -0.0016
vn -0.0000 -0.0000 -1.0000
vn -0.0000 0.0002 -1.0000
vn -1.0000 0.0001 -0.0000
vn -0.0000 0.0024 -1.0000
vn 0.4537 -0.8912 -0.0015
vn 1.0000 -0.0000 -0.0001
vn -0.0000 1.0000 -0.0000
vt 23.382143 -16.899029
vt 14.538027 -16.887913
vt 23.382143 -16.913174
vt 23.382143 -16.880840
vt 23.382143 -16.858612
vt 23.772449 -0.035709
vt -22.772449 -0.035709
vt -22.772449 -3.240893
vt 23.772449 -3.240893
vt -14.000625 -5.420435
vt 15.000626 -5.420435
vt 15.000626 -3.995363
vt -14.000625 -3.995363
vt -1.116041 7.792983
vt -1.116040 0.562045
vt -0.835671 0.562044
vt -0.835672 1.541854
vt -0.835672 3.625565
vt -0.835672 5.709274
vt -0.835672 7.792983
vt 0.402868 1.541854
vt 0.402868 0.562044
vt 0.577405 0.562045
vt 0.402867 3.625565
vt 0.402867 5.709274
vt 0.402867 7.792983
vt 0.566651 7.792983
vt 4.797956 0.993200
vt 4.797956 0.993898
vt 1.662521 0.993898
vt 4.797956 -1.615196
vt 1.662521 -0.326714
vt 1.662521 -1.615196
vt -3.500688 0.220414
vt -3.500688 0.087445
vt -0.365253 -1.615196
vt -0.365253 -0.326714
vt -0.365253 0.993898
vt -2.487984 0.993898
vt -4.333611 -1.431172
vt -4.333611 -1.594924
vt -4.333611 0.087445
vt -4.333611 -0.192870
vt -4.290965 1.211909
vt -4.290965 7.296381
vt -5.574709 7.296381
vt -4.290965 -6.257916
vt -5.574709 -6.257916
vt -4.190016 1.211910
vt -4.190016 -6.257916
vt -2.906271 -6.257916
vt -4.190016 7.296381
vt -2.906271 7.296381
vt -4.527202 -2.636994
vt -4.527202 -4.038851
vt 5.523873 -4.038851
vt 5.523873 -2.636994
vt 2.743720 2.896929
vt -1.743720 2.873279
vt -1.743720 -0.114122
vt 2.743720 -0.107554
vt -1.742851 -0.114482
vt -3.500688 0.993898
vt -21.300976 1.038382
vt -21.286829 1.038382
vt -21.312088 9.882497
vt -14.000625 -3.317604
vt 15.000626 -3.317604
vt 15.000626 0.146446
vt -14.000625 0.146446
vt -4.527202 -1.970277
vt 5.341198 -1.970277
vt 5.341199 1.437343
vt -4.527202 1.437343
vt 1.282127 5.061573
vt 1.282128 0.562045
vt 9.192580 -0.437623
vt 9.192580 0.493051
vt 0.573952 0.493051
vt 0.573952 -0.437623
vt -2.882251 -1.607372
vt -2.882251 -1.643900
vt -2.882250 -4.911687
vt -1.598506 -4.911687
vt -1.598507 4.430904
vt -2.882251 4.430904
vt 3.192554 -5.012635
vt 3.156024 -5.012635
vt -2.882251 -5.012636
vt -2.882251 -6.296380
vt 6.460339 -6.296379
vt 6.460339 -5.012635
vt 23.382143 -13.729481
vt 14.538027 -13.729481
s 1
usemtl Material_#154
f 5/1/1 61/2/2 4/3/3
f 6/4/4 61/2/2 5/1/1
f 7/5/5 61/2/2 6/4/4
f 1/6/6 2/7/6 10/8/6
f 10/8/6 9/9/6 1/6/6
f 2/10/7 1/11/7 12/12/7
f 12/12/7 11/13/7 2/10/7
f 17/14/8 55/15/8 56/16/8
f 17/14/8 56/16/8 21/17/8
f 17/14/8 21/17/8 22/18/8
f 17/14/8 22/18/8 23/19/8
f 17/14/8 23/19/8 18/20/8
f 24/21/8 83/22/8 57/23/9
f 25/24/8 24/21/8 57/23/9
f 26/25/8 25/24/8 57/23/9
f 19/26/8 26/25/8 57/23/9
f 19/26/8 57/23/9 20/27/8
f 43/28/6 48/29/6 47/30/6
f 28/31/6 43/28/6 47/30/6
f 28/31/6 47/30/6 32/32/6
f 30/33/6 28/31/6 32/32/6
f 15/34/6 16/35/6 29/36/6
f 15/34/6 29/36/6 31/37/6
f 15/34/6 31/37/6 46/38/6
f 15/34/6 46/38/6 51/39/6
f 16/35/6 19/40/6 20/41/6
f 20/41/6 29/36/6 16/35/6
f 16/35/6 17/42/6 18/43/6
f 18/43/6 19/40/6 16/35/6
f 29/36/6 30/33/6 32/32/6
f 32/32/6 31/37/6 29/36/6
f 46/44/8 31/45/8 35/46/8
f 49/47/8 46/44/8 35/46/8
f 49/47/8 35/46/8 34/48/8
f 47/49/10 50/50/10 33/51/10
f 32/52/10 47/49/10 33/51/10
f 32/52/10 33/51/10 36/53/10
f 12/54/7 1/55/7 41/56/7
f 41/56/7 42/57/7 12/54/7
f 28/58/6 1/59/6 9/60/11
f 43/61/6 28/58/6 9/60/11
f 43/61/6 9/60/11 44/62/12
f 45/63/6 15/34/6 51/39/6
f 3/64/13 4/65/3 61/66/2
f 13/67/7 14/68/7 111/69/7
f 111/69/7 54/70/7 13/67/7
f 14/71/7 27/72/7 113/73/7
f 113/73/7 111/74/7 14/71/7
f 27/75/14 20/27/15 57/23/14
f 57/23/14 113/76/14 27/75/14
f 8/77/10 52/78/10 58/79/10
f 58/79/10 53/80/16 8/77/10
f 62/1/17 63/3/18 61/2/2
f 64/4/19 62/1/17 61/2/2
f 65/5/20 64/4/19 61/2/2
f 66/6/21 59/9/22 60/8/21
f 60/8/21 67/7/21 66/6/21
f 67/10/7 69/13/7 68/12/7
f 68/12/7 66/11/7 67/10/7
f 74/14/8 78/20/8 77/19/8
f 74/14/8 77/19/8 76/18/8
f 74/14/8 76/18/8 75/17/8
f 74/14/8 75/17/8 56/16/8
f 74/14/8 56/16/8 55/15/8
f 79/26/8 84/27/23 57/23/9
f 57/23/9 83/22/8 82/21/8
f 57/23/9 82/21/8 81/24/8
f 57/23/9 81/24/8 80/25/8
f 79/26/8 57/23/9 80/25/8
f 89/30/21 88/29/21 87/28/21
f 89/30/21 87/28/21 86/31/21
f 90/32/21 89/30/21 86/31/21
f 85/33/21 90/32/21 86/31/21
f 72/34/21 94/39/21 93/38/21
f 72/34/21 93/38/21 92/37/21
f 72/34/21 92/37/21 91/36/21
f 72/34/21 91/36/21 73/35/21
f 73/35/21 91/36/21 84/41/21
f 84/41/21 79/40/21 73/35/21
f 73/35/21 79/40/21 78/43/21
f 78/43/21 74/42/21 73/35/21
f 91/36/21 92/37/21 90/32/21
f 90/32/21 85/33/21 91/36/21
f 95/47/8 97/48/8 96/46/8
f 96/46/8 92/45/8 93/44/8
f 95/47/8 96/46/8 93/44/8
f 90/52/10 100/53/10 99/51/10
f 99/51/10 98/50/10 89/49/10
f 90/52/10 99/51/10 89/49/10
f 68/54/7 107/57/7 106/56/7
f 106/56/7 66/55/7 68/54/7
f 87/61/21 105/62/24 59/60/22
f 59/60/22 66/59/21 86/58/21
f 87/61/21 59/60/22 86/58/21
f 108/63/21 94/39/21 72/34/21
f 109/64/25 61/66/2 63/65/18
f 71/67/7 54/70/7 111/69/7
f 111/69/7 70/68/7 71/67/7
f 70/71/7 111/74/7 113/73/7
f 113/73/7 112/72/7 70/71/7
f 112/75/14 113/76/14 57/23/14
f 57/23/9 84/27/23 112/75/14
f 110/77/10 53/80/16 58/79/10
f 58/79/10 114/78/10 110/77/10
f 39/81/26 37/82/10 33/83/10
f 33/83/27 50/84/27 49/85/27
f 39/81/27 33/83/27 49/85/27
f 39/81/27 49/85/27 34/86/27
f 40/87/7 38/88/21 35/89/7
f 35/89/7 31/90/7 32/91/7
f 40/87/7 35/89/7 32/91/7
f 40/87/7 32/91/7 36/92/7
f 7/5/5 8/93/10 53/94/16
f 53/94/16 61/2/2 7/5/5
f 103/81/27 97/86/27 95/85/27
f 95/85/27 98/84/27 99/83/27
f 103/81/27 95/85/27 99/83/27
f 103/81/26 99/83/10 101/82/10
f 102/87/7 100/92/7 90/91/7
f 90/91/7 92/90/7 96/89/7
f 102/87/7 90/91/7 96/89/7
f 102/87/7 96/89/7 104/88/6
f 65/5/20 61/2/2 53/94/16
f 53/94/16 110/93/10 65/5/20
