# Blender 5.1.0
# www.blender.org
mtllib buildingWalls2.mtl
o buildingWalls2
v -12.427968 0.199935 -0.411998
v -12.427968 0.199935 -3.213996
v -12.427969 0.177649 -0.409324
v -12.427969 0.177649 -3.216671
v 6.572031 0.199935 -3.213996
v 6.572031 0.177648 -0.409324
v 6.572031 0.199935 -0.411998
v 6.572031 0.177648 -3.216671
v -12.427968 0.199935 0.335720
v -12.427968 0.199935 3.137718
v 6.572031 0.199935 3.137718
v 6.572031 0.177648 0.333046
v -12.427969 0.177649 0.333046
v 6.572031 0.199935 0.335720
v -12.427969 0.177649 3.140392
v 6.572031 0.177648 3.140392
vn -0.0000 0.2101 0.9777
vn -0.0000 0.1192 0.9929
vn -0.0000 0.1191 -0.9929
vn -0.0000 0.1192 -0.9929
vn -0.0000 0.2101 -0.9777
vn -0.0000 0.1191 0.9929
vt 0.717742 1.000000
vt 0.750000 1.000000
vt 0.750000 0.000000
vt 0.717742 0.000000
s 1
usemtl Material_#28
f 6/1/1 7/2/2 1/3/2
f 1/3/2 3/4/1 6/1/1
f 2/3/3 5/2/4 8/1/5
f 8/1/5 4/4/5 2/3/3
f 12/1/5 13/4/5 9/3/4
f 9/3/4 14/2/4 12/1/5
f 10/3/6 15/4/1 16/1/1
f 16/1/1 11/2/6 10/3/6
