# Blender 5.1.0
# www.blender.org
mtllib doorsWalls2d1.mtl
o doorsWalls2d1
v -12.524206 0.194188 1.427391
v -12.524206 0.194188 0.379181
v -12.520227 0.194188 0.379181
v -12.520227 0.194188 1.427391
v -12.524206 0.685661 1.427391
v -12.520227 0.685661 1.427391
v -12.520227 0.685661 0.379181
v -12.524206 0.685661 0.379181
v -12.520227 0.391777 1.427391
v -12.520227 0.438924 1.427391
v -12.521227 0.439924 1.427391
v -12.524206 0.439924 1.427391
v -12.524206 0.390777 1.427391
v -12.521227 0.390777 1.427391
v -12.520227 0.391777 0.379181
v -12.520227 0.438924 0.379181
v -12.524206 0.390777 0.379181
v -12.524206 0.439924 0.379181
v -12.521227 0.439924 0.379181
v -12.521227 0.390777 0.379181
v -12.520227 0.637513 1.427391
v -12.524206 0.636513 1.427391
v -12.521227 0.636513 1.427391
v -12.520227 0.588366 1.427391
v -12.520227 0.635513 1.427391
v -12.524206 0.587366 1.427391
v -12.521227 0.587366 1.427391
v -12.520227 0.539219 1.427391
v -12.520227 0.586366 1.427391
v -12.524206 0.538219 1.427391
v -12.521227 0.538219 1.427391
v -12.520227 0.490072 1.427391
v -12.520227 0.537219 1.427391
v -12.524206 0.489072 1.427391
v -12.521227 0.489072 1.427391
v -12.520227 0.440924 1.427391
v -12.520227 0.488072 1.427391
v -12.524206 0.243335 1.427391
v -12.520227 0.242335 1.427391
v -12.521227 0.243335 1.427391
v -12.524206 0.292483 1.427391
v -12.520227 0.244335 1.427391
v -12.520227 0.291483 1.427391
v -12.521227 0.292483 1.427391
v -12.524206 0.341630 1.427391
v -12.520227 0.293483 1.427391
v -12.520227 0.340630 1.427391
v -12.521227 0.341630 1.427391
v -12.520227 0.342630 1.427391
v -12.520227 0.389777 1.427391
v -12.520227 0.637513 0.379181
v -12.520227 0.588366 0.379181
v -12.520227 0.635513 0.379181
v -12.520227 0.539219 0.379181
v -12.520227 0.586366 0.379181
v -12.520227 0.490072 0.379181
v -12.520227 0.537219 0.379181
v -12.520227 0.440924 0.379181
v -12.520227 0.488072 0.379181
v -12.520227 0.242335 0.379181
v -12.520227 0.244335 0.379181
v -12.520227 0.291483 0.379181
v -12.520227 0.293483 0.379181
v -12.520227 0.340630 0.379181
v -12.520227 0.342630 0.379181
v -12.520227 0.389777 0.379181
v -12.524206 0.636513 0.379181
v -12.521227 0.636513 0.379181
v -12.524206 0.587366 0.379181
v -12.521227 0.587366 0.379181
v -12.524206 0.538219 0.379181
v -12.521227 0.538219 0.379181
v -12.524206 0.489072 0.379181
v -12.521227 0.489072 0.379181
v -12.524206 0.243335 0.379181
v -12.521227 0.243335 0.379181
v -12.524206 0.292483 0.379181
v -12.521227 0.292483 0.379181
v -12.524206 0.341630 0.379181
v -12.521227 0.341630 0.379181
v -12.521227 0.439924 1.427391
v -12.521227 0.390777 1.427391
v -12.521227 0.439924 0.379181
v -12.521227 0.390777 0.379181
v -12.521227 0.636513 1.427391
v -12.521227 0.587366 1.427391
v -12.521227 0.538219 1.427391
v -12.521227 0.489072 1.427391
v -12.521227 0.243335 1.427391
v -12.521227 0.292483 1.427391
v -12.521227 0.341630 1.427391
v -12.521227 0.636513 0.379181
v -12.521227 0.587366 0.379181
v -12.521227 0.538219 0.379181
v -12.521227 0.489072 0.379181
v -12.521227 0.243335 0.379181
v -12.521227 0.292483 0.379181
v -12.521227 0.341630 0.379181
vn -0.0000 -1.0000 -0.0000
vn -0.0000 1.0000 -0.0000
vn -0.0000 -0.0000 1.0000
vn 1.0000 -0.0000 -0.0000
vn -0.0000 -0.0000 -1.0000
vn -1.0000 -0.0000 -0.0000
vn 1.0000 -0.0000 -0.0001
vn 0.7071 0.7071 -0.0000
vn 0.7071 -0.7071 -0.0000
vt 1.000000 0.000000
vt 1.000000 1.000000
vt 0.000000 1.000000
vt 0.000000 0.000000
vt 1.000000 0.402035
vt 1.000000 0.497965
vt 0.748724 0.500000
vt 0.000000 0.500000
vt 0.000000 0.400000
vt 0.748724 0.400000
vt 0.000000 0.497965
vt 0.000000 0.402035
vt 1.000000 0.500000
vt 0.251276 0.500000
vt 1.000000 0.400000
vt 0.251276 0.400000
vt 0.000000 0.400000
vt 1.000000 0.400000
vt 0.000000 0.900000
vt 1.000000 0.902035
vt 0.748724 0.900000
vt 1.000000 0.802035
vt 1.000000 0.897965
vt 0.000000 0.800000
vt 0.748724 0.800000
vt 1.000000 0.702035
vt 1.000000 0.797965
vt 0.000000 0.700000
vt 0.748724 0.700000
vt 1.000000 0.602035
vt 1.000000 0.697965
vt 0.000000 0.600000
vt 0.748724 0.600000
vt 1.000000 0.502035
vt 1.000000 0.597965
vt 0.000000 0.100000
vt 1.000000 0.097965
vt 0.748724 0.100000
vt 1.000000 0.102035
vt 1.000000 0.197965
vt 0.000000 0.200000
vt 0.748724 0.200000
vt 1.000000 0.202035
vt 1.000000 0.297965
vt 0.000000 0.300000
vt 0.748724 0.300000
vt 1.000000 0.302035
vt 1.000000 0.397965
vt 0.000000 0.902035
vt 0.000000 0.897965
vt 0.000000 0.802035
vt 0.000000 0.797965
vt 0.000000 0.702035
vt 0.000000 0.697965
vt 0.000000 0.602035
vt 0.000000 0.597965
vt 0.000000 0.502035
vt 0.000000 0.097965
vt 0.000000 0.102035
vt 0.000000 0.197965
vt 0.000000 0.202035
vt 0.000000 0.297965
vt 0.000000 0.302035
vt 0.000000 0.397965
vt 1.000000 0.900000
vt 0.251276 0.900000
vt 1.000000 0.800000
vt 0.251276 0.800000
vt 1.000000 0.700000
vt 0.251276 0.700000
vt 1.000000 0.600000
vt 0.251276 0.600000
vt 1.000000 0.100000
vt 0.251276 0.100000
vt 1.000000 0.200000
vt 0.251276 0.200000
vt 1.000000 0.300000
vt 0.251276 0.300000
vt 0.000000 0.800000
vt 1.000000 0.800000
vt 0.000000 0.700000
vt 1.000000 0.700000
vt 1.000000 0.100000
vt 0.000000 0.100000
vt 1.000000 0.200000
vt 0.000000 0.200000
vt 1.000000 0.300000
vt 0.000000 0.300000
s 1
usemtl Material_#191
f 1/1/1 2/2/1 3/3/1
f 3/3/1 4/4/1 1/1/1
f 5/4/2 6/1/2 7/2/2
f 7/2/2 8/3/2 5/4/2
f 9/5/3 10/6/3 11/7/3
f 9/5/3 11/7/3 12/8/3
f 9/5/3 12/8/3 13/9/3
f 9/5/3 13/9/3 14/10/3
f 16/6/4 10/11/4 9/12/4
f 9/12/4 15/5/4 16/6/4
f 18/13/5 19/14/5 16/11/5
f 18/13/5 16/11/5 15/12/5
f 17/15/5 18/13/5 15/12/5
f 17/15/5 15/12/5 20/16/5
f 12/13/6 18/8/6 17/17/6
f 17/17/6 13/18/6 12/13/6
f 6/2/3 5/3/3 22/19/3
f 21/20/3 6/2/3 22/19/3
f 21/20/3 22/19/3 23/21/3
f 24/22/3 25/23/3 23/21/3
f 24/22/3 23/21/3 22/19/3
f 24/22/3 22/19/3 26/24/3
f 24/22/3 26/24/3 27/25/3
f 28/26/3 29/27/3 27/25/3
f 28/26/3 27/25/3 26/24/3
f 28/26/3 26/24/3 30/28/3
f 28/26/3 30/28/3 31/29/3
f 32/30/3 33/31/3 31/29/3
f 32/30/3 31/29/3 30/28/3
f 32/30/3 30/28/3 34/32/3
f 32/30/3 34/32/3 35/33/3
f 36/34/3 37/35/3 35/33/3
f 36/34/3 35/33/3 34/32/3
f 36/34/3 34/32/3 12/8/3
f 36/34/3 12/8/3 11/7/3
f 38/36/3 1/4/3 4/1/3
f 4/1/3 39/37/3 40/38/3
f 38/36/3 4/1/3 40/38/3
f 38/36/3 40/38/3 42/39/3
f 38/36/3 42/39/3 43/40/3
f 41/41/3 38/36/3 43/40/3
f 41/41/3 43/40/3 44/42/3
f 41/41/3 44/42/3 46/43/3
f 41/41/3 46/43/3 47/44/3
f 45/45/3 41/41/3 47/44/3
f 45/45/3 47/44/3 48/46/3
f 45/45/3 48/46/3 49/47/3
f 45/45/3 49/47/3 50/48/3
f 13/9/3 45/45/3 50/48/3
f 13/9/3 50/48/3 14/10/3
f 7/2/4 6/3/4 21/49/4
f 21/49/4 51/20/4 7/2/4
f 53/23/4 25/50/4 24/51/4
f 24/51/4 52/22/4 53/23/4
f 55/27/4 29/52/4 28/53/4
f 28/53/4 54/26/4 55/27/4
f 57/31/4 33/54/4 32/55/4
f 32/55/4 56/30/4 57/31/4
f 59/35/4 37/56/4 36/57/4
f 36/57/4 58/34/4 59/35/4
f 4/4/4 3/1/4 60/37/4
f 60/37/4 39/58/4 4/4/4
f 42/59/4 61/39/4 62/40/4
f 62/40/4 43/60/4 42/59/4
f 46/61/4 63/43/4 64/44/4
f 64/44/4 47/62/4 46/61/4
f 49/63/4 65/47/4 66/48/4
f 66/48/4 50/64/4 49/63/4
f 67/65/5 8/2/5 7/3/5
f 7/3/5 51/49/5 68/66/5
f 67/65/5 7/3/5 68/66/5
f 67/65/5 68/66/5 53/50/5
f 67/65/5 53/50/5 52/51/5
f 69/67/5 67/65/5 52/51/5
f 69/67/5 52/51/5 70/68/5
f 69/67/5 70/68/5 55/52/5
f 69/67/5 55/52/5 54/53/5
f 71/69/5 69/67/5 54/53/5
f 71/69/5 54/53/5 72/70/5
f 71/69/5 72/70/5 57/54/5
f 71/69/5 57/54/5 56/55/5
f 73/71/5 71/69/5 56/55/5
f 73/71/5 56/55/5 74/72/5
f 73/71/5 74/72/5 59/56/5
f 73/71/5 59/56/5 58/57/5
f 18/13/5 73/71/5 58/57/5
f 18/13/5 58/57/5 19/14/5
f 3/4/5 2/1/5 75/73/5
f 60/58/5 3/4/5 75/73/5
f 60/58/5 75/73/5 76/74/5
f 62/60/5 61/59/5 76/74/5
f 62/60/5 76/74/5 75/73/5
f 62/60/5 75/73/5 77/75/5
f 62/60/5 77/75/5 78/76/5
f 64/62/5 63/61/5 78/76/5
f 64/62/5 78/76/5 77/75/5
f 64/62/5 77/75/5 79/77/5
f 64/62/5 79/77/5 80/78/5
f 66/64/5 65/63/5 80/78/5
f 66/64/5 80/78/5 79/77/5
f 66/64/5 79/77/5 17/15/5
f 66/64/5 17/15/5 20/16/5
f 5/2/6 8/3/6 67/19/6
f 67/19/6 22/65/6 5/2/6
f 22/65/6 67/19/6 69/79/6
f 69/79/6 26/80/6 22/65/6
f 26/80/6 69/79/6 71/81/6
f 71/81/6 30/82/6 26/80/6
f 30/82/6 71/81/6 73/32/6
f 73/32/6 34/71/6 30/82/6
f 34/71/6 73/32/6 18/8/6
f 18/8/6 12/13/6 34/71/6
f 2/4/6 1/1/6 38/83/6
f 38/83/6 75/84/6 2/4/6
f 75/84/6 38/83/6 41/85/6
f 41/85/6 77/86/6 75/84/6
f 77/86/6 41/85/6 45/87/6
f 45/87/6 79/88/6 77/86/6
f 79/88/6 45/87/6 13/18/6
f 13/18/6 17/17/6 79/88/6
f 10/6/7 81/13/4 11/7/4
f 14/10/4 82/15/4 9/5/7
f 81/8/8 10/11/8 16/6/8
f 16/6/8 83/13/8 81/8/8
f 9/12/9 82/17/9 84/15/9
f 84/15/9 15/5/9 9/12/9
f 19/14/4 83/8/4 16/11/7
f 15/12/7 84/17/4 20/16/4
f 23/21/4 85/65/4 21/20/7
f 25/23/7 85/65/4 23/21/4
f 27/25/4 86/67/4 24/22/7
f 29/27/7 86/67/4 27/25/4
f 31/29/4 87/69/4 28/26/7
f 33/31/7 87/69/4 31/29/4
f 35/33/4 88/71/4 32/30/7
f 37/35/7 88/71/4 35/33/4
f 11/7/4 81/13/4 36/34/7
f 39/37/7 89/73/4 40/38/4
f 40/38/4 89/73/4 42/39/7
f 43/40/7 90/75/4 44/42/4
f 44/42/4 90/75/4 46/43/7
f 47/44/7 91/77/4 48/46/4
f 48/46/4 91/77/4 49/47/7
f 50/48/7 82/15/4 14/10/4
f 92/65/9 51/20/9 21/49/9
f 21/49/9 85/19/9 92/65/9
f 85/19/8 25/50/8 53/23/8
f 53/23/8 92/65/8 85/19/8
f 24/51/9 86/79/9 93/67/9
f 93/67/9 52/22/9 24/51/9
f 86/79/8 29/52/8 55/27/8
f 55/27/8 93/67/8 86/79/8
f 28/53/9 87/81/9 94/69/9
f 94/69/9 54/26/9 28/53/9
f 87/81/8 33/54/8 57/31/8
f 57/31/8 94/69/8 87/81/8
f 32/55/9 88/32/9 95/71/9
f 95/71/9 56/30/9 32/55/9
f 88/32/8 37/56/8 59/35/8
f 59/35/8 95/71/8 88/32/8
f 36/57/9 81/8/9 83/13/9
f 83/13/9 58/34/9 36/57/9
f 89/84/8 39/58/8 60/37/8
f 60/37/8 96/73/8 89/84/8
f 96/73/9 61/39/9 42/59/9
f 42/59/9 89/84/9 96/73/9
f 62/40/8 97/75/8 90/86/8
f 90/86/8 43/60/8 62/40/8
f 97/75/9 63/43/9 46/61/9
f 46/61/9 90/86/9 97/75/9
f 64/44/8 98/77/8 91/88/8
f 91/88/8 47/62/8 64/44/8
f 98/77/9 65/47/9 49/63/9
f 49/63/9 91/88/9 98/77/9
f 66/48/8 84/15/8 82/17/8
f 82/17/8 50/64/8 66/48/8
f 51/49/7 92/19/4 68/66/4
f 68/66/4 92/19/4 53/50/7
f 52/51/7 93/79/4 70/68/4
f 70/68/4 93/79/4 55/52/7
f 54/53/7 94/81/4 72/70/4
f 72/70/4 94/81/4 57/54/7
f 56/55/7 95/32/4 74/72/4
f 74/72/4 95/32/4 59/56/7
f 58/57/7 83/8/4 19/14/4
f 76/74/4 96/84/4 60/58/7
f 61/59/7 96/84/4 76/74/4
f 78/76/4 97/86/4 62/60/7
f 63/61/7 97/86/4 78/76/4
f 80/78/4 98/88/4 64/62/7
f 65/63/7 98/88/4 80/78/4
f 20/16/4 84/17/4 66/64/7
