# Blender 5.1.0
# www.blender.org
mtllib doorsWalls1d1.mtl
o doorsWalls1d1
v -12.524206 0.196053 2.139201
v -12.520227 0.196053 2.139201
v -12.520227 0.196053 3.146185
v -12.524206 0.196053 3.146185
v -12.524206 0.245200 2.139201
v -12.521227 0.245200 2.139201
v -12.520227 0.246200 2.139201
v -12.520227 0.293347 2.139201
v -12.524206 0.294347 2.139201
v -12.524206 0.245200 3.146185
v -12.521227 0.245200 3.146185
v -12.520227 0.244200 3.146185
v -12.524206 0.294347 3.146185
v -12.520227 0.293347 3.146185
v -12.520227 0.246200 3.146185
v -12.521227 0.294347 3.146185
v -12.521227 0.294347 2.139201
v -12.521227 0.294347 3.146185
v -12.520227 0.295347 2.139201
v -12.520227 0.295347 3.146185
v -12.520227 0.342495 3.146185
v -12.520227 0.342495 2.139201
v -12.521227 0.343495 3.146185
v -12.524206 0.343495 3.146185
v -12.521227 0.343495 2.139201
v -12.521227 0.343495 3.146185
v -12.520227 0.344495 2.139201
v -12.520227 0.344495 3.146185
v -12.520227 0.391642 3.146185
v -12.520227 0.391642 2.139201
v -12.521227 0.392642 3.146185
v -12.524206 0.392642 3.146185
v -12.521227 0.392642 2.139201
v -12.521227 0.392642 3.146185
v -12.520227 0.393642 3.146185
v -12.520227 0.393642 2.139201
v -12.521227 0.392642 2.139201
v -12.524206 0.392642 2.139201
v -12.524206 0.441789 2.139201
v -12.521227 0.441789 2.139201
v -12.520227 0.440789 2.139201
v -12.520227 0.440789 3.146185
v -12.521227 0.441789 3.146185
v -12.524206 0.441789 3.146185
v -12.521227 0.441789 3.146185
v -12.521227 0.441789 2.139201
v -12.520227 0.442789 2.139201
v -12.524206 0.490936 2.139201
v -12.521227 0.490936 2.139201
v -12.520227 0.489936 2.139201
v -12.520227 0.442789 3.146185
v -12.520227 0.489936 3.146185
v -12.521227 0.490936 3.146185
v -12.524206 0.490936 3.146185
v -12.521227 0.490936 3.146185
v -12.521227 0.490936 2.139201
v -12.520227 0.491936 2.139201
v -12.524206 0.540084 2.139201
v -12.521227 0.540084 2.139201
v -12.520227 0.539084 2.139201
v -12.520227 0.491936 3.146185
v -12.520227 0.539084 3.146185
v -12.521227 0.540084 3.146185
v -12.524206 0.540084 3.146185
v -12.521227 0.540084 3.146185
v -12.521227 0.540084 2.139201
v -12.520227 0.541084 2.139201
v -12.524206 0.589231 2.139201
v -12.521227 0.589231 2.139201
v -12.520227 0.588231 2.139201
v -12.520227 0.541084 3.146185
v -12.520227 0.588231 3.146185
v -12.521227 0.589231 3.146185
v -12.524206 0.589231 3.146185
v -12.521227 0.589231 3.146185
v -12.521227 0.589231 2.139201
v -12.520227 0.590231 2.139201
v -12.524206 0.638378 2.139201
v -12.521227 0.638378 2.139201
v -12.520227 0.637378 2.139201
v -12.520227 0.590231 3.146185
v -12.520227 0.637378 3.146185
v -12.521227 0.638378 3.146185
v -12.524206 0.638378 3.146185
v -12.521227 0.638378 3.146185
v -12.521227 0.638378 2.139201
v -12.520227 0.639378 2.139201
v -12.520227 0.687525 2.139201
v -12.520227 0.639378 3.146185
v -12.520227 0.687525 3.146185
v -12.524206 0.687525 3.146185
v -12.524206 0.687525 2.139201
v -12.524206 0.343495 2.139201
v -12.521227 0.343495 2.139201
v -12.521227 0.294347 2.139201
v -12.521227 0.245200 3.146185
v -12.521227 0.245200 2.139201
v -12.520227 0.244200 2.139201
vn -0.0000 -0.0000 -1.0000
vn -0.0000 -1.0000 -0.0000
vn -1.0000 -0.0000 -0.0000
vn -0.0000 -0.0000 1.0000
vn 0.7073 0.7069 -0.0000
vn 1.0000 -0.0000 -0.0000
vn 0.7069 0.7073 -0.0001
vn 0.7073 -0.7069 -0.0000
vn 0.7073 -0.7070 -0.0000
vn 0.7069 -0.7073 -0.0001
vn 0.7074 0.7068 -0.0000
vn 0.7073 0.7070 -0.0000
vn 0.7070 0.7072 -0.0001
vn -0.0000 1.0000 -0.0000
vn 0.7074 -0.7068 -0.0000
vt 0.000000 0.100000
vt 1.000000 0.000000
vt 0.000000 0.000000
vt 0.000000 1.000000
vt 1.000000 1.000000
vt 1.000000 0.100000
vt 1.000000 0.102035
vt 0.748724 0.100000
vt 1.000000 0.197965
vt 0.000000 0.200000
vt 1.000000 0.200000
vt 0.000000 0.100000
vt 0.000000 0.197965
vt 1.000000 0.100000
vt 0.251276 0.100000
vt 0.000000 0.097965
vt 0.000000 0.200000
vt 1.000000 0.200000
vt 0.000000 0.102035
vt 0.251276 0.200000
vt 0.000000 0.202035
vt 1.000000 0.202035
vt 0.000000 0.297965
vt 1.000000 0.297965
vt 0.000000 0.300000
vt 0.251276 0.300000
vt 1.000000 0.300000
vt 0.000000 0.302035
vt 1.000000 0.302035
vt 0.000000 0.397965
vt 1.000000 0.397965
vt 0.000000 0.400000
vt 0.251276 0.400000
vt 1.000000 0.400000
vt 0.000000 0.402035
vt 1.000000 0.402035
vt 0.748724 0.400000
vt 0.000000 0.400000
vt 0.000000 0.500000
vt 0.748724 0.500000
vt 1.000000 0.497965
vt 0.000000 0.497965
vt 1.000000 0.500000
vt 0.251276 0.500000
vt 1.000000 0.502035
vt 0.000000 0.502035
vt 0.000000 0.600000
vt 0.748724 0.600000
vt 1.000000 0.597965
vt 0.000000 0.597965
vt 1.000000 0.600000
vt 0.251276 0.600000
vt 0.000000 0.602035
vt 1.000000 0.602035
vt 0.000000 0.700000
vt 0.748724 0.700000
vt 1.000000 0.697965
vt 0.000000 0.697965
vt 1.000000 0.700000
vt 0.000000 0.700000
vt 0.251276 0.700000
vt 0.000000 0.702035
vt 1.000000 0.702035
vt 0.000000 0.800000
vt 0.748724 0.800000
vt 1.000000 0.797965
vt 0.000000 0.797965
vt 1.000000 0.800000
vt 0.000000 0.800000
vt 0.251276 0.800000
vt 0.000000 0.802035
vt 1.000000 0.802035
vt 0.000000 0.900000
vt 0.748724 0.900000
vt 1.000000 0.897965
vt 0.000000 0.897965
vt 1.000000 0.900000
vt 0.251276 0.900000
vt 0.000000 0.902035
vt 1.000000 0.902035
vt 1.000000 0.800000
vt 1.000000 0.700000
vt 1.000000 0.400000
vt 0.000000 0.300000
vt 1.000000 0.300000
vt 0.748724 0.300000
vt 0.748724 0.200000
vt 1.000000 0.097965
s 1
usemtl Material_#191
f 5/1/1 2/2/1 1/3/1
f 1/2/2 2/3/2 3/4/2
f 3/4/2 4/5/2 1/2/2
f 5/6/3 1/2/3 4/3/3
f 7/7/1 6/8/1 5/1/1
f 5/1/1 6/8/1 2/2/1
f 8/9/1 7/7/1 5/1/1
f 9/10/1 8/9/1 5/1/1
f 9/11/3 5/6/3 10/12/3
f 4/3/3 10/12/3 5/6/3
f 14/13/4 10/14/4 11/15/4
f 12/16/4 11/15/4 10/14/4
f 12/16/4 10/14/4 3/3/4
f 10/14/4 4/2/4 3/3/4
f 10/12/3 13/17/3 9/11/3
f 14/13/4 13/18/4 10/14/4
f 14/9/5 8/13/5 17/17/5
f 7/19/6 8/13/6 14/9/6
f 14/9/6 15/7/6 7/19/6
f 14/13/4 11/15/4 15/19/4
f 16/20/6 14/13/7 18/17/6
f 14/13/4 16/20/4 13/18/4
f 17/17/5 18/18/5 14/9/5
f 18/18/8 17/17/9 19/21/9
f 19/21/9 20/22/8 18/18/8
f 20/21/10 16/20/6 18/17/6
f 21/23/4 16/20/4 20/21/4
f 21/24/6 20/22/6 19/21/6
f 21/24/11 22/23/12 25/25/12
f 19/21/6 22/23/6 21/24/6
f 23/26/6 21/23/7 26/25/6
f 21/23/4 23/26/4 24/27/4
f 21/23/4 24/27/4 13/18/4
f 21/23/4 13/18/4 16/20/4
f 25/25/12 26/27/11 21/24/11
f 26/27/9 25/25/8 27/28/8
f 27/28/8 28/29/9 26/27/9
f 28/28/10 23/26/6 26/25/6
f 29/30/4 23/26/4 28/28/4
f 29/31/6 28/29/6 27/28/6
f 29/31/12 30/30/5 33/32/5
f 27/28/6 30/30/6 29/31/6
f 31/33/6 29/30/13 34/32/6
f 29/30/4 31/33/4 32/34/4
f 29/30/4 32/34/4 24/27/4
f 29/30/4 24/27/4 23/26/4
f 33/32/5 34/34/12 29/31/12
f 35/35/10 31/33/6 34/32/6
f 36/35/9 35/36/8 34/34/8
f 34/34/8 33/32/9 36/35/9
f 37/37/6 36/36/10 33/34/6
f 36/36/1 37/37/1 38/38/1
f 36/36/1 38/38/1 39/39/1
f 36/36/1 39/39/1 40/40/1
f 36/36/1 40/40/1 41/41/1
f 36/35/6 41/42/6 42/41/6
f 42/41/6 35/36/6 36/35/6
f 35/35/4 42/42/4 44/43/4
f 42/41/5 41/42/5 46/39/5
f 43/44/6 42/42/7 45/39/6
f 42/42/4 43/44/4 44/43/4
f 46/39/5 45/43/5 42/41/5
f 40/40/6 47/45/10 46/43/6
f 41/41/7 40/40/6 46/43/6
f 45/43/8 46/39/8 47/46/8
f 47/45/1 40/40/1 39/39/1
f 47/45/1 39/39/1 48/47/1
f 47/45/1 48/47/1 49/48/1
f 47/45/1 49/48/1 50/49/1
f 47/46/6 50/50/6 52/49/6
f 47/46/8 51/45/8 45/43/8
f 52/49/6 51/45/6 47/46/6
f 51/46/4 52/50/4 54/51/4
f 52/49/12 50/50/5 56/47/5
f 53/52/6 52/50/7 55/47/6
f 52/50/4 53/52/4 54/51/4
f 56/47/5 55/51/12 52/49/12
f 55/51/8 56/47/8 57/53/8
f 49/48/6 57/54/10 56/51/6
f 50/49/7 49/48/6 56/51/6
f 57/54/1 49/48/1 48/47/1
f 57/54/1 48/47/1 58/55/1
f 57/54/1 58/55/1 59/56/1
f 57/54/1 59/56/1 60/57/1
f 57/53/6 60/58/6 62/57/6
f 57/53/8 61/54/8 55/51/8
f 62/57/6 61/54/6 57/53/6
f 61/53/4 62/58/4 64/59/4
f 62/57/5 60/58/5 66/60/5
f 63/61/6 62/58/13 65/60/6
f 62/58/4 63/61/4 64/59/4
f 66/60/5 65/59/5 62/57/5
f 65/59/8 66/60/8 67/62/8
f 59/56/6 67/63/10 66/59/6
f 60/57/13 59/56/6 66/59/6
f 67/63/1 59/56/1 58/55/1
f 67/63/1 58/55/1 68/64/1
f 67/63/1 68/64/1 69/65/1
f 67/63/1 69/65/1 70/66/1
f 67/62/6 70/67/6 72/66/6
f 67/62/8 71/63/8 65/59/8
f 72/66/6 71/63/6 67/62/6
f 71/62/4 72/67/4 74/68/4
f 72/66/5 70/67/12 76/69/12
f 73/70/6 72/67/13 75/69/6
f 72/67/4 73/70/4 74/68/4
f 76/69/12 75/68/5 72/66/5
f 75/68/8 76/69/8 77/71/8
f 69/65/6 77/72/10 76/68/6
f 70/66/13 69/65/6 76/68/6
f 77/72/1 69/65/1 68/64/1
f 77/72/1 68/64/1 78/73/1
f 77/72/1 78/73/1 79/74/1
f 77/72/1 79/74/1 80/75/1
f 77/71/6 80/76/6 82/75/6
f 77/71/8 81/72/8 75/68/8
f 82/75/6 81/72/6 77/71/6
f 81/71/4 82/76/4 84/77/4
f 82/75/12 80/76/5 86/73/5
f 83/78/6 82/76/13 85/73/6
f 82/76/4 83/78/4 84/77/4
f 86/73/5 85/77/12 82/75/12
f 85/77/8 86/73/8 87/79/8
f 79/74/6 87/80/10 86/77/6
f 80/75/13 79/74/6 86/77/6
f 87/80/1 79/74/1 78/73/1
f 87/80/1 78/73/1 88/5/1
f 87/79/6 88/4/6 90/5/6
f 87/79/8 89/80/8 85/77/8
f 90/5/6 89/80/6 87/79/6
f 84/77/4 90/4/4 91/5/4
f 92/3/14 91/4/14 90/5/14
f 90/5/14 88/2/14 92/3/14
f 83/78/4 89/79/4 90/4/4
f 84/77/4 83/78/4 90/4/4
f 84/73/3 91/4/3 92/5/3
f 78/73/1 92/4/1 88/5/1
f 92/5/3 78/77/3 84/73/3
f 89/79/10 83/78/6 85/73/6
f 74/68/4 81/71/4 84/77/4
f 74/69/3 84/73/3 78/77/3
f 81/71/10 73/70/6 75/69/6
f 74/68/4 73/70/4 81/71/4
f 78/77/3 68/81/3 74/69/3
f 64/59/4 71/62/4 74/68/4
f 64/60/3 74/69/3 68/81/3
f 71/62/10 63/61/6 65/60/6
f 64/59/4 63/61/4 71/62/4
f 68/81/3 58/82/3 64/60/3
f 54/51/4 61/53/4 64/59/4
f 54/47/3 64/60/3 58/82/3
f 61/53/10 53/52/6 55/47/6
f 54/51/4 53/52/4 61/53/4
f 58/82/3 48/51/3 54/47/3
f 44/43/4 51/46/4 54/51/4
f 44/39/3 54/47/3 48/51/3
f 51/46/10 43/44/6 45/39/6
f 44/43/4 43/44/4 51/46/4
f 48/51/3 39/43/3 44/39/3
f 32/34/4 35/35/4 44/43/4
f 32/32/3 44/39/3 39/43/3
f 39/43/3 38/83/3 32/32/3
f 38/38/1 37/37/1 30/31/1
f 24/25/3 32/32/3 38/83/3
f 38/38/1 30/31/1 93/84/1
f 38/83/3 93/85/3 24/25/3
f 27/29/1 94/86/1 93/84/1
f 93/84/1 94/86/1 22/24/1
f 93/84/1 22/24/1 9/10/1
f 93/85/3 9/11/3 13/17/3
f 30/31/1 27/29/1 93/84/1
f 13/17/3 24/25/3 93/85/3
f 22/24/7 94/86/6 25/27/6
f 94/86/6 27/29/10 25/27/6
f 30/31/13 37/37/6 33/34/6
f 32/34/4 31/33/4 35/35/4
f 22/24/1 19/22/1 9/10/1
f 95/87/6 19/22/10 17/18/6
f 19/22/1 95/87/1 9/10/1
f 9/10/1 95/87/1 8/9/1
f 8/9/7 95/87/6 17/18/6
f 7/19/15 15/7/9 96/14/9
f 15/19/10 11/15/6 96/12/6
f 96/14/9 97/12/15 7/19/15
f 97/12/12 96/14/5 12/88/5
f 11/15/6 12/16/7 96/12/6
f 6/8/6 7/7/10 97/14/6
f 98/88/7 6/8/6 97/14/6
f 12/88/5 98/16/12 97/12/12
f 6/8/1 98/88/1 2/2/1
f 2/3/6 98/16/6 12/88/6
f 12/88/6 3/2/6 2/3/6
