# Blender 5.1.0
# www.blender.org
mtllib screen4.mtl
o screen4
v -11.820891 1.201323 -2.251331
v -11.820891 1.201323 -3.183128
v -11.799083 1.201323 -3.183128
v -11.799083 1.201323 -2.251331
v -11.799083 1.800994 -2.251331
v -11.820891 1.800994 -2.251331
v -11.831418 1.245794 -2.320433
v -11.831418 1.756522 -2.320433
v -11.831418 1.756522 -3.114025
v -11.857484 1.742512 -2.342203
v -11.857484 1.742512 -2.521328
v -11.857484 1.742512 -3.092255
v -11.857484 1.742512 -2.913130
v -11.857484 1.259805 -2.913130
v -11.857484 1.742512 -2.896354
v -11.867381 1.742512 -2.913130
v -11.867381 1.259805 -2.913130
v -11.857484 1.742512 -2.538104
v -11.857484 1.742512 -2.717229
v -11.857484 1.259805 -2.538104
v -11.867381 1.742512 -2.538104
v -11.867381 1.259805 -2.538104
v -11.867381 1.259805 -2.521328
v -11.880076 1.259805 -2.538104
v -11.867381 1.246736 -2.521328
v -11.867381 1.246736 -2.538104
v -11.880076 1.246736 -2.521328
v -11.880076 1.246736 -2.538104
v -11.880076 1.259805 -2.521328
v -11.880076 1.742512 -2.521328
v -11.880076 1.742512 -2.538104
v -11.880076 1.788037 -2.538104
v -11.880076 1.788037 -2.521328
v -11.867381 1.788037 -2.521328
v -11.867381 1.788037 -2.538104
v -11.867381 1.742512 -2.521328
v -11.857484 1.259805 -2.521328
v -11.857484 1.259805 -2.342203
v -11.831418 1.245794 -3.114025
v -11.857484 1.259805 -2.896354
v -11.857484 1.259805 -2.717229
v -11.867381 1.259805 -2.896354
v -11.867381 1.742512 -2.896354
v -11.880076 1.742512 -2.896354
v -11.867381 1.788037 -2.913130
v -11.867381 1.788037 -2.896354
v -11.880076 1.788037 -2.913130
v -11.880076 1.788037 -2.896354
v -11.880076 1.742512 -2.913130
v -11.880076 1.259805 -2.896354
v -11.880076 1.259805 -2.913130
v -11.880076 1.246736 -2.913130
v -11.867381 1.246736 -2.913130
v -11.867381 1.246736 -2.896354
v -11.880076 1.246736 -2.896354
v -11.820891 1.800994 -3.183128
v -11.857484 1.259805 -3.092255
v -11.799083 1.800994 -3.183128
v -11.799083 1.790515 -3.170968
v -11.799083 1.790515 -2.263490
v -11.799083 1.211802 -2.263490
v -11.806077 1.790515 -2.263490
v -11.806077 1.211802 -2.263490
v -11.806077 1.211802 -3.170968
v -11.806077 1.790515 -3.170968
v -11.799083 1.211802 -3.170968
vn -0.9917 -0.0855 -0.0961
vn -0.9917 -0.0855 0.0961
vn -0.9895 -0.1267 0.0692
vn -0.0000 -1.0000 -0.0000
vn -0.0000 -0.0000 1.0000
vn -0.9917 0.0855 0.0961
vn -0.9895 0.1267 0.0692
vn -0.9895 0.1267 -0.0692
vn -0.6410 -0.0000 0.7675
vn -0.4735 0.8808 -0.0000
vn -0.4734 0.8808 -0.0000
vn -0.0000 -0.0000 -1.0000
vn -1.0000 -0.0000 -0.0000
vn -0.0000 1.0000 -0.0000
vn 1.0000 -0.0000 -0.0000
vn -0.4734 -0.8808 -0.0000
vn -0.9895 -0.1267 -0.0692
vn -0.9917 0.0855 -0.0961
vn -0.6410 -0.0000 -0.7675
vt 0.000000 0.000000
vt 1.000000 0.000000
vt 1.000000 1.000000
vt 0.000000 1.000000
vt 0.761183 1.000000
vt 0.238817 1.000000
vt 0.238817 0.000000
vt 0.738817 1.000000
vt 0.261183 1.000000
vt 0.738817 0.000000
vt 0.500000 1.000000
vt 0.761183 0.000000
vt 0.261183 0.000000
vt 0.500000 0.000000
s 1
usemtl Material_#179
f 63/1/15 64/2/15 65/3/15
f 65/3/15 62/4/15 63/1/15
usemtl tv
f 2/1/1 1/2/2 7/2/3
f 1/2/4 2/3/4 3/4/4
f 3/4/4 4/1/4 1/2/4
f 1/1/5 4/2/5 5/3/5
f 5/3/5 6/4/5 1/1/5
f 1/2/2 6/3/6 8/3/7
f 8/3/7 7/2/3 1/2/2
f 9/4/8 8/3/7 6/3/6
f 7/2/9 8/3/9 10/3/9
f 8/3/10 9/4/10 12/4/10
f 11/5/10 10/3/10 8/3/10
f 11/5/10 8/3/10 13/6/11
f 8/3/10 12/4/10 13/6/11
f 13/6/12 14/7/12 17/7/12
f 14/7/13 13/6/13 12/4/13
f 18/8/12 11/5/10 13/6/11
f 13/6/11 15/9/12 18/8/12
f 15/9/14 13/6/14 16/6/14
f 17/7/12 16/6/12 13/6/12
f 20/10/13 18/8/13 19/11/13
f 15/9/12 19/11/12 18/8/12
f 18/8/12 20/10/12 22/10/12
f 11/5/14 18/8/14 21/8/14
f 22/10/12 21/8/12 18/8/12
f 23/12/4 22/10/4 20/10/4
f 21/8/12 22/10/12 24/10/12
f 22/10/15 23/12/15 25/12/15
f 24/10/12 22/10/12 26/10/12
f 25/12/15 26/10/15 22/10/15
f 26/10/4 25/12/4 27/12/4
f 27/12/4 28/10/4 26/10/4
f 26/10/12 28/10/12 24/10/12
f 28/10/13 27/12/13 29/12/13
f 29/12/13 24/10/13 28/10/13
f 30/5/5 29/12/5 23/12/5
f 29/12/13 30/5/13 31/8/13
f 31/8/13 24/10/13 29/12/13
f 23/12/5 29/12/5 27/12/5
f 31/8/13 30/5/13 33/5/13
f 24/10/12 31/8/12 21/8/12
f 21/8/12 31/8/12 32/8/12
f 33/5/13 32/8/13 31/8/13
f 32/8/14 33/5/14 34/5/14
f 34/5/5 33/5/5 30/5/5
f 35/8/15 34/5/15 36/5/15
f 34/5/14 35/8/14 32/8/14
f 30/5/5 36/5/5 34/5/5
f 36/5/15 21/8/15 35/8/15
f 21/8/14 36/5/14 11/5/14
f 37/12/5 11/5/5 36/5/5
f 36/5/5 23/12/5 37/12/5
f 23/12/5 36/5/5 30/5/5
f 11/5/13 37/12/13 38/2/13
f 39/1/16 38/2/16 37/12/16
f 14/7/16 39/1/16 37/12/16
f 40/13/5 14/7/16 37/12/16
f 37/12/16 20/10/5 40/13/5
f 20/10/4 37/12/4 23/12/4
f 40/13/5 15/9/5 43/9/5
f 15/9/13 40/13/13 41/14/13
f 20/10/5 41/14/5 40/13/5
f 14/7/4 40/13/4 42/13/4
f 43/9/5 42/13/5 40/13/5
f 16/6/14 43/9/14 15/9/14
f 42/13/5 43/9/5 44/9/5
f 43/9/15 16/6/15 45/6/15
f 44/9/5 43/9/5 46/9/5
f 45/6/15 46/9/15 43/9/15
f 46/9/14 45/6/14 47/6/14
f 47/6/14 48/9/14 46/9/14
f 46/9/5 48/9/5 44/9/5
f 48/9/13 47/6/13 49/6/13
f 49/6/13 44/9/13 48/9/13
f 50/13/13 44/9/13 49/6/13
f 49/6/13 51/7/13 50/13/13
f 51/7/12 49/6/12 16/6/12
f 16/6/12 49/6/12 47/6/12
f 50/13/13 51/7/13 52/7/13
f 51/7/12 17/7/12 53/7/12
f 16/6/12 17/7/12 51/7/12
f 53/7/12 52/7/12 51/7/12
f 54/13/15 53/7/15 17/7/15
f 53/7/4 54/13/4 55/13/4
f 55/13/4 52/7/4 53/7/4
f 55/13/5 54/13/5 42/13/5
f 52/7/13 55/13/13 50/13/13
f 42/13/5 50/13/5 55/13/5
f 17/7/15 42/13/15 54/13/15
f 44/9/5 50/13/5 42/13/5
f 47/6/12 45/6/12 16/6/12
f 42/13/4 17/7/4 14/7/4
f 19/11/13 41/14/13 20/10/13
f 41/14/13 19/11/13 15/9/13
f 39/1/16 7/2/16 38/2/16
f 7/2/3 39/1/17 2/1/1
f 56/4/18 2/1/1 39/1/17
f 39/1/17 9/4/8 56/4/18
f 9/4/19 39/1/19 57/1/19
f 14/7/16 57/1/16 39/1/16
f 57/1/19 12/4/19 9/4/19
f 12/4/13 57/1/13 14/7/13
f 56/3/12 58/4/12 3/1/12
f 58/3/14 56/4/14 6/1/14
f 6/3/6 56/4/18 9/4/8
f 3/1/12 2/2/12 56/3/12
f 58/3/15 5/4/15 60/4/15
f 6/1/14 5/2/14 58/3/14
f 3/2/15 58/3/15 59/3/15
f 60/4/15 59/3/15 58/3/15
f 61/1/15 60/4/15 5/4/15
f 59/3/4 60/4/4 62/4/4
f 60/4/12 61/1/12 63/1/12
f 63/1/12 62/4/12 60/4/12
f 64/2/14 63/1/14 61/1/14
f 65/3/5 64/2/5 66/2/5
f 62/4/4 65/3/4 59/3/4
f 66/2/5 59/3/5 65/3/5
f 59/3/15 66/2/15 3/2/15
f 4/1/15 3/2/15 66/2/15
f 66/2/15 61/1/15 4/1/15
f 61/1/14 66/2/14 64/2/14
f 5/4/15 4/1/15 61/1/15
f 38/2/13 10/3/13 11/5/13
f 10/3/9 38/2/9 7/2/9
f 32/8/12 35/8/12 21/8/12
f 27/12/5 25/12/5 23/12/5
