# Blender 5.1.0
# www.blender.org
mtllib screen1.mtl
o screen1
v -11.820891 1.201323 2.175052
v -11.799083 1.201323 2.175052
v -11.799083 1.201323 3.106849
v -11.820891 1.201323 3.106849
v -11.820891 1.800994 2.175052
v -11.799083 1.800994 2.175052
v -11.831418 1.245794 2.244154
v -11.831418 1.756522 2.244154
v -11.831418 1.756522 3.037747
v -11.857484 1.742512 2.265924
v -11.857484 1.742512 3.015977
v -11.857484 1.742512 2.836852
v -11.857484 1.742512 2.445050
v -11.857484 1.259805 2.445050
v -11.857484 1.259805 2.265924
v -11.867381 1.742512 2.445050
v -11.867381 1.742512 2.461826
v -11.857484 1.742512 2.461826
v -11.857484 1.742512 2.820076
v -11.857484 1.742512 2.640951
v -11.857484 1.259805 2.461826
v -11.867381 1.259805 2.461826
v -11.867381 1.259805 2.445050
v -11.880076 1.259805 2.461826
v -11.867381 1.246736 2.461826
v -11.867381 1.246736 2.445050
v -11.880076 1.246736 2.445050
v -11.880076 1.246736 2.461826
v -11.880076 1.259805 2.445050
v -11.880076 1.742512 2.461826
v -11.880076 1.742512 2.445050
v -11.880076 1.788037 2.445050
v -11.867381 1.788037 2.445050
v -11.880076 1.788037 2.461826
v -11.867381 1.788037 2.461826
v -11.857484 1.259805 2.820076
v -11.857484 1.259805 2.640951
v -11.867381 1.259805 2.820076
v -11.857484 1.259805 2.836852
v -11.867381 1.742512 2.820076
v -11.867381 1.742512 2.836852
v -11.880076 1.742512 2.820076
v -11.867381 1.788037 2.820076
v -11.867381 1.788037 2.836852
v -11.880076 1.788037 2.836852
v -11.880076 1.788037 2.820076
v -11.880076 1.742512 2.836852
v -11.880076 1.259805 2.836852
v -11.880076 1.259805 2.820076
v -11.880076 1.246736 2.820076
v -11.880076 1.246736 2.836852
v -11.867381 1.246736 2.836852
v -11.867381 1.246736 2.820076
v -11.867381 1.259805 2.836852
v -11.857484 1.259805 3.015977
v -11.831418 1.245794 3.037747
v -11.820891 1.800994 3.106849
v -11.799083 1.800994 3.106849
v -11.799083 1.790515 3.094690
v -11.799083 1.790515 2.187212
v -11.799083 1.211802 2.187212
v -11.806077 1.790515 2.187212
v -11.806077 1.211802 2.187212
v -11.806077 1.790515 3.094690
v -11.806077 1.211802 3.094690
v -11.799083 1.211802 3.094690
vn -0.0000 -0.0000 -1.0000
vn -0.0000 -1.0000 -0.0000
vn -0.9895 -0.1267 -0.0692
vn -0.9917 -0.0855 -0.0961
vn -0.9917 -0.0855 0.0961
vn -0.9895 0.1267 -0.0692
vn -0.9917 0.0855 -0.0961
vn -0.6410 -0.0000 -0.7675
vn -0.9895 0.1267 0.0692
vn -0.4735 0.8808 -0.0000
vn -0.4734 0.8808 -0.0000
vn 1.0000 -0.0000 -0.0000
vn -1.0000 -0.0000 -0.0000
vn -0.0000 1.0000 -0.0000
vn -0.0000 -0.0000 1.0000
vn -0.4734 -0.8808 -0.0000
vn -0.9895 -0.1267 0.0692
vn -0.9917 0.0855 0.0961
vn -0.6410 -0.0000 0.7675
vt 1.000000 1.000000
vt 1.000000 0.000000
vt 0.000000 0.000000
vt 0.000000 1.000000
vt 0.761183 1.000000
vt 0.238817 1.000000
vt 0.738817 1.000000
vt 0.761183 0.000000
vt 0.261183 1.000000
vt 0.500000 1.000000
vt 0.738817 0.000000
vt 0.261183 0.000000
vt 0.500000 0.000000
vt 0.238817 0.000000
s 1
usemtl Material_#179
f 63/3/12 62/4/12 64/1/12
f 64/1/12 65/2/12 63/3/12
usemtl tv
f 6/1/1 2/2/1 1/3/1
f 1/2/2 2/3/2 3/4/2
f 3/4/2 4/1/2 1/2/2
f 7/2/3 1/2/4 4/3/5
f 8/1/6 5/1/7 1/2/4
f 1/3/1 5/4/1 6/1/1
f 1/2/4 7/2/3 8/1/6
f 10/1/8 8/1/8 7/2/8
f 5/1/7 8/1/6 9/4/9
f 11/4/10 9/4/10 8/1/10
f 13/5/10 8/1/10 10/1/10
f 12/6/11 11/4/10 8/1/10
f 13/5/10 12/6/11 8/1/10
f 12/6/11 13/5/10 18/7/12
f 13/5/13 10/1/13 15/2/13
f 16/5/1 13/5/1 14/8/1
f 15/2/13 14/8/13 13/5/13
f 13/5/14 16/5/14 17/7/14
f 17/7/14 18/7/14 13/5/14
f 18/7/12 19/9/1 12/6/11
f 19/9/1 18/7/12 20/10/1
f 20/10/13 18/7/13 21/11/13
f 22/11/15 21/11/15 18/7/15
f 18/7/15 17/7/15 22/11/15
f 24/11/15 22/11/15 17/7/15
f 21/11/2 22/11/2 23/8/2
f 26/8/12 23/8/12 22/11/12
f 25/11/15 22/11/15 24/11/15
f 22/11/12 25/11/12 26/8/12
f 23/8/1 26/8/1 27/8/1
f 27/8/2 26/8/2 25/11/2
f 29/8/13 27/8/13 28/11/13
f 25/11/2 28/11/2 27/8/2
f 27/8/1 29/8/1 23/8/1
f 28/11/13 24/11/13 29/8/13
f 29/8/13 24/11/13 30/7/13
f 30/7/13 31/5/13 29/8/13
f 23/8/1 29/8/1 31/5/1
f 32/5/13 31/5/13 30/7/13
f 31/5/1 16/5/1 23/8/1
f 33/5/1 16/5/1 31/5/1
f 31/5/1 32/5/1 33/5/1
f 33/5/14 32/5/14 34/7/14
f 34/7/14 35/7/14 33/5/14
f 16/5/12 33/5/12 35/7/12
f 17/7/15 35/7/15 34/7/15
f 35/7/12 17/7/12 16/5/12
f 30/7/13 34/7/13 32/5/13
f 34/7/15 30/7/15 17/7/15
f 17/7/15 30/7/15 24/11/15
f 24/11/15 28/11/15 25/11/15
f 23/8/2 14/8/2 21/11/2
f 14/8/1 23/8/1 16/5/1
f 36/12/15 21/11/12 14/8/16
f 21/11/12 36/12/15 37/13/15
f 21/11/13 37/13/13 20/10/13
f 37/13/13 36/12/13 19/9/13
f 19/9/13 20/10/13 37/13/13
f 40/9/1 19/9/1 36/12/1
f 36/12/1 38/12/1 40/9/1
f 38/12/2 36/12/2 39/14/2
f 14/8/16 39/14/16 36/12/15
f 42/9/1 40/9/1 38/12/1
f 19/9/14 40/9/14 41/6/14
f 44/6/12 41/6/12 40/9/12
f 43/9/1 40/9/1 42/9/1
f 40/9/12 43/9/12 44/6/12
f 41/6/15 44/6/15 45/6/15
f 45/6/14 44/6/14 43/9/14
f 47/6/13 45/6/13 46/9/13
f 43/9/14 46/9/14 45/6/14
f 45/6/15 47/6/15 41/6/15
f 41/6/15 47/6/15 48/14/15
f 49/12/13 48/14/13 47/6/13
f 47/6/13 42/9/13 49/12/13
f 46/9/13 42/9/13 47/6/13
f 51/14/13 48/14/13 49/12/13
f 38/12/1 49/12/1 42/9/1
f 50/12/1 49/12/1 38/12/1
f 49/12/13 50/12/13 51/14/13
f 48/14/15 51/14/15 52/14/15
f 52/14/2 51/14/2 50/12/2
f 50/12/2 53/12/2 52/14/2
f 54/14/12 52/14/12 53/12/12
f 52/14/15 54/14/15 48/14/15
f 54/14/15 39/14/15 12/6/15
f 39/14/2 54/14/2 38/12/2
f 53/12/12 38/12/12 54/14/12
f 48/14/15 54/14/15 41/6/15
f 12/6/15 41/6/15 54/14/15
f 38/12/1 53/12/1 50/12/1
f 42/9/1 46/9/1 43/9/1
f 41/6/14 12/6/14 19/9/14
f 11/4/13 12/6/13 39/14/13
f 39/14/13 55/3/13 11/4/13
f 39/14/16 56/3/16 55/3/16
f 39/14/16 14/8/16 56/3/16
f 56/3/17 4/3/5 57/4/18
f 4/3/5 56/3/17 7/2/3
f 15/2/16 7/2/16 56/3/16
f 55/3/19 56/3/19 9/4/19
f 57/4/18 9/4/9 56/3/17
f 14/8/16 15/2/16 56/3/16
f 9/4/9 57/4/18 5/1/7
f 5/3/14 57/4/14 58/1/14
f 3/3/15 58/4/15 57/1/15
f 57/1/15 4/2/15 3/3/15
f 58/1/14 6/2/14 5/3/14
f 60/4/12 6/4/12 58/1/12
f 59/1/12 58/1/12 3/2/12
f 58/1/12 59/1/12 60/4/12
f 62/4/2 60/4/2 59/1/2
f 6/4/12 60/4/12 61/3/12
f 63/3/15 61/3/15 60/4/15
f 60/4/15 62/4/15 63/3/15
f 61/3/14 63/3/14 65/2/14
f 66/2/1 65/2/1 64/1/1
f 65/2/14 66/2/14 61/3/14
f 2/3/12 61/3/12 66/2/12
f 66/2/12 3/2/12 2/3/12
f 3/2/12 66/2/12 59/1/12
f 64/1/1 59/1/1 66/2/1
f 59/1/2 64/1/2 62/4/2
f 61/3/12 2/3/12 6/4/12
f 9/4/19 11/4/19 55/3/19
f 7/2/8 15/2/8 10/1/8
