# Blender 5.1.0
# www.blender.org
mtllib screen3.mtl
o screen3
v -11.820891 1.201323 -0.451865
v -11.820891 1.201323 -1.383662
v -11.799083 1.201323 -1.383662
v -11.799083 1.201323 -0.451865
v -11.799083 1.800994 -0.451865
v -11.820891 1.800994 -0.451865
v -11.831418 1.245794 -0.520967
v -11.831418 1.756522 -0.520967
v -11.831418 1.756522 -1.314560
v -11.857484 1.742512 -0.542738
v -11.857484 1.742512 -0.721863
v -11.857484 1.742512 -1.292790
v -11.857484 1.742512 -1.113665
v -11.857484 1.259805 -1.113665
v -11.857484 1.742512 -1.096889
v -11.867381 1.742512 -1.113665
v -11.867381 1.259805 -1.113665
v -11.857484 1.742512 -0.738639
v -11.857484 1.742512 -0.917764
v -11.857484 1.259805 -0.738639
v -11.867381 1.742512 -0.738639
v -11.867381 1.259805 -0.738639
v -11.867381 1.259805 -0.721863
v -11.880076 1.259805 -0.738639
v -11.867381 1.246736 -0.721863
v -11.867381 1.246736 -0.738639
v -11.880076 1.246736 -0.721863
v -11.880076 1.246736 -0.738639
v -11.880076 1.259805 -0.721863
v -11.880076 1.742512 -0.721863
v -11.880076 1.742512 -0.738639
v -11.880076 1.788037 -0.738639
v -11.880076 1.788037 -0.721863
v -11.867381 1.788037 -0.721863
v -11.867381 1.788037 -0.738639
v -11.867381 1.742512 -0.721863
v -11.857484 1.259805 -0.721863
v -11.857484 1.259805 -0.542738
v -11.831418 1.245794 -1.314560
v -11.857484 1.259805 -1.096889
v -11.857484 1.259805 -0.917764
v -11.867381 1.259805 -1.096889
v -11.867381 1.742512 -1.096889
v -11.880076 1.742512 -1.096889
v -11.867381 1.788037 -1.113665
v -11.867381 1.788037 -1.096889
v -11.880076 1.788037 -1.113665
v -11.880076 1.788037 -1.096889
v -11.880076 1.742512 -1.113665
v -11.880076 1.259805 -1.096889
v -11.880076 1.259805 -1.113665
v -11.880076 1.246736 -1.113665
v -11.867381 1.246736 -1.113665
v -11.867381 1.246736 -1.096889
v -11.880076 1.246736 -1.096889
v -11.820891 1.800994 -1.383662
v -11.857484 1.259805 -1.292790
v -11.799083 1.800994 -1.383662
v -11.799083 1.790515 -1.371503
v -11.799083 1.790515 -0.464025
v -11.799083 1.211802 -0.464025
v -11.806077 1.790515 -0.464025
v -11.806077 1.211802 -0.464025
v -11.806077 1.211802 -1.371503
v -11.806077 1.790515 -1.371503
v -11.799083 1.211802 -1.371503
vn -0.9917 -0.0855 -0.0961
vn -0.9917 -0.0855 0.0961
vn -0.9895 -0.1267 0.0692
vn -0.0000 -1.0000 -0.0000
vn -0.0000 -0.0000 1.0000
vn -0.9917 0.0855 0.0961
vn -0.9895 0.1267 0.0692
vn -0.9895 0.1267 -0.0692
vn -0.6410 -0.0000 0.7675
vn -0.6411 -0.0000 0.7675
vn -0.4735 0.8808 -0.0000
vn -0.4734 0.8808 -0.0000
vn -0.0000 -0.0000 -1.0000
vn -1.0000 -0.0000 -0.0000
vn 1.0000 -0.0000 -0.0000
vn -0.0000 1.0000 -0.0000
vn -0.4734 -0.8808 -0.0000
vn -0.9895 -0.1267 -0.0692
vn -0.9917 0.0855 -0.0961
vn -0.6410 -0.0000 -0.7675
vt 0.000000 0.000000
vt 1.000000 0.000000
vt 1.000000 1.000000
vt 0.000000 1.000000
vt 0.761183 1.000000
vt 0.238817 1.000000
vt 0.238817 0.000000
vt 0.738817 1.000000
vt 0.261183 1.000000
vt 0.738817 0.000000
vt 0.500000 1.000000
vt 0.761183 0.000000
vt 0.261183 0.000000
vt 0.500000 0.000000
s 1
usemtl Material_#179
f 63/1/15 64/2/15 65/3/15
f 65/3/15 62/4/15 63/1/15
usemtl tv
f 2/1/1 1/2/2 7/2/3
f 1/2/4 2/3/4 3/4/4
f 3/4/4 4/1/4 1/2/4
f 1/1/5 4/2/5 5/3/5
f 5/3/5 6/4/5 1/1/5
f 1/2/2 6/3/6 8/3/7
f 8/3/7 7/2/3 1/2/2
f 9/4/8 8/3/7 6/3/6
f 7/2/9 8/3/10 10/3/9
f 8/3/11 9/4/11 12/4/11
f 11/5/11 10/3/11 8/3/11
f 11/5/11 8/3/11 13/6/12
f 8/3/11 12/4/11 13/6/12
f 13/6/13 14/7/13 17/7/13
f 14/7/14 13/6/14 12/4/14
f 18/8/13 11/5/11 13/6/12
f 13/6/12 15/9/15 18/8/13
f 15/9/16 13/6/16 16/6/16
f 17/7/13 16/6/13 13/6/13
f 20/10/14 18/8/14 19/11/14
f 15/9/15 19/11/13 18/8/13
f 18/8/13 20/10/13 22/10/13
f 11/5/16 18/8/16 21/8/16
f 22/10/13 21/8/13 18/8/13
f 23/12/4 22/10/4 20/10/4
f 21/8/13 22/10/13 24/10/13
f 22/10/15 23/12/15 25/12/15
f 24/10/13 22/10/13 26/10/13
f 25/12/15 26/10/15 22/10/15
f 26/10/4 25/12/4 27/12/4
f 27/12/4 28/10/4 26/10/4
f 26/10/13 28/10/13 24/10/13
f 28/10/14 27/12/14 29/12/14
f 29/12/14 24/10/14 28/10/14
f 30/5/5 29/12/5 23/12/5
f 29/12/14 30/5/14 31/8/14
f 31/8/14 24/10/14 29/12/14
f 23/12/5 29/12/5 27/12/5
f 31/8/14 30/5/14 33/5/14
f 24/10/13 31/8/13 21/8/13
f 21/8/13 31/8/13 32/8/13
f 33/5/14 32/8/14 31/8/14
f 32/8/16 33/5/16 34/5/16
f 34/5/5 33/5/5 30/5/5
f 35/8/15 34/5/15 36/5/15
f 34/5/16 35/8/16 32/8/16
f 30/5/5 36/5/5 34/5/5
f 36/5/15 21/8/15 35/8/15
f 21/8/16 36/5/16 11/5/16
f 37/12/5 11/5/5 36/5/5
f 36/5/5 23/12/5 37/12/5
f 23/12/5 36/5/5 30/5/5
f 11/5/14 37/12/14 38/2/14
f 39/1/17 38/2/17 37/12/17
f 14/7/17 39/1/17 37/12/17
f 40/13/5 14/7/17 37/12/17
f 37/12/17 20/10/5 40/13/5
f 20/10/4 37/12/4 23/12/4
f 40/13/5 15/9/5 43/9/5
f 15/9/14 40/13/14 41/14/14
f 20/10/5 41/14/5 40/13/5
f 14/7/4 40/13/4 42/13/4
f 43/9/5 42/13/5 40/13/5
f 16/6/16 43/9/16 15/9/16
f 42/13/5 43/9/5 44/9/5
f 43/9/15 16/6/15 45/6/15
f 44/9/5 43/9/5 46/9/5
f 45/6/15 46/9/15 43/9/15
f 46/9/16 45/6/16 47/6/16
f 47/6/16 48/9/16 46/9/16
f 46/9/5 48/9/5 44/9/5
f 48/9/14 47/6/14 49/6/14
f 49/6/14 44/9/14 48/9/14
f 50/13/14 44/9/14 49/6/14
f 49/6/14 51/7/14 50/13/14
f 51/7/13 49/6/13 16/6/13
f 16/6/13 49/6/13 47/6/13
f 50/13/14 51/7/14 52/7/14
f 51/7/13 17/7/13 53/7/13
f 16/6/13 17/7/13 51/7/13
f 53/7/13 52/7/13 51/7/13
f 54/13/15 53/7/15 17/7/15
f 53/7/4 54/13/4 55/13/4
f 55/13/4 52/7/4 53/7/4
f 55/13/5 54/13/5 42/13/5
f 52/7/14 55/13/14 50/13/14
f 42/13/5 50/13/5 55/13/5
f 17/7/15 42/13/15 54/13/15
f 44/9/5 50/13/5 42/13/5
f 47/6/13 45/6/13 16/6/13
f 42/13/4 17/7/4 14/7/4
f 19/11/14 41/14/14 20/10/14
f 41/14/14 19/11/14 15/9/14
f 39/1/17 7/2/17 38/2/17
f 7/2/3 39/1/18 2/1/1
f 56/4/19 2/1/1 39/1/18
f 39/1/18 9/4/8 56/4/19
f 9/4/20 39/1/20 57/1/20
f 14/7/17 57/1/17 39/1/17
f 57/1/20 12/4/20 9/4/20
f 12/4/14 57/1/14 14/7/14
f 56/3/13 58/4/13 3/1/13
f 58/3/16 56/4/16 6/1/16
f 6/3/6 56/4/19 9/4/8
f 3/1/13 2/2/13 56/3/13
f 58/3/15 5/4/15 60/4/15
f 6/1/16 5/2/16 58/3/16
f 3/2/15 58/3/15 59/3/15
f 60/4/15 59/3/15 58/3/15
f 61/1/15 60/4/15 5/4/15
f 59/3/4 60/4/4 62/4/4
f 60/4/13 61/1/13 63/1/13
f 63/1/13 62/4/13 60/4/13
f 64/2/16 63/1/16 61/1/16
f 65/3/5 64/2/5 66/2/5
f 62/4/4 65/3/4 59/3/4
f 66/2/5 59/3/5 65/3/5
f 59/3/15 66/2/15 3/2/15
f 4/1/15 3/2/15 66/2/15
f 66/2/15 61/1/15 4/1/15
f 61/1/16 66/2/16 64/2/16
f 5/4/15 4/1/15 61/1/15
f 38/2/14 10/3/14 11/5/14
f 10/3/9 38/2/9 7/2/9
f 32/8/13 35/8/13 21/8/13
f 27/12/5 25/12/5 23/12/5
