# Blender 5.1.0
# www.blender.org
mtllib wall3.mtl
o wall3
v 8.537381 0.200036 -3.685249
v 8.537381 0.200036 -0.038139
v 10.119122 0.200036 -3.685249
v 12.688253 0.200036 -0.038139
v 12.688253 0.200036 -3.685249
v 11.142077 0.200036 -3.685249
v 12.688253 0.200036 3.608971
v 8.537381 0.200036 3.608971
v 10.119122 0.200036 3.608971
v 11.142077 0.200036 3.608971
vn -0.0000 1.0000 -0.0000
vt 1.507662 0.663224
vt -0.961674 2.832874
vt -0.961674 0.663224
vt -0.020704 2.832874
vt 1.507662 2.832874
vt 0.587848 2.832874
s 1
usemtl Material_#25
f 4/1/1 1/2/1 2/3/1
f 4/1/1 3/4/1 1/2/1
f 4/1/1 5/5/1 6/6/1
f 4/1/1 6/6/1 3/4/1
f 4/1/1 2/3/1 8/2/1
f 4/1/1 10/6/1 7/5/1
f 4/1/1 8/2/1 9/4/1
f 4/1/1 9/4/1 10/6/1
