# Blender 5.1.0
# www.blender.org
mtllib wall4.mtl
o wall4
v 12.723818 1.408137 -3.685249
v 12.723818 1.408137 -0.038139
v 12.723818 1.017936 -3.685249
v 12.723818 0.608986 -3.685249
v 12.723818 0.404511 -3.685249
v 12.723818 0.608956 -0.038139
v 12.723818 0.404496 -0.038139
v 12.723818 0.608986 3.608971
v 12.723818 0.404511 3.608971
v 12.723818 1.017936 3.608971
v 12.723818 1.408137 3.608971
vn -1.0000 -0.0000 -0.0000
vt 0.199794 0.050355
vt 0.199794 -2.131432
vt 0.433222 -2.131432
vt 0.677865 -2.131432
vt 0.800187 -2.131432
vt 0.800196 0.050355
vt 0.677884 0.050355
s 1
usemtl Material_#25
f 2/1/1 1/2/1 3/3/1
f 2/1/1 3/3/1 4/4/1
f 4/4/1 5/5/1 7/6/1
f 2/1/1 4/4/1 6/7/1
f 7/6/1 6/7/1 4/4/1
f 8/4/1 6/7/1 7/6/1
f 7/6/1 9/5/1 8/4/1
f 2/1/1 8/4/1 10/3/1
f 2/1/1 6/7/1 8/4/1
f 2/1/1 10/3/1 11/2/1
